<svg data-v-423bf9ae="" xmlns="http://www.w3.org/2000/svg" viewBox="0 0 409 102" class="iconLeft"><!----><defs data-v-423bf9ae=""><linearGradient data-v-423bf9ae="" gradientTransform="rotate(25)" id="176bece6-b8f9-4a61-8a4f-a9cee4549284" x1="0%" y1="0%" x2="100%" y2="0%"><stop data-v-423bf9ae="" offset="0%" style="stop-color: rgb(240, 0, 121); stop-opacity: 1;"></stop><stop data-v-423bf9ae="" offset="100%" style="stop-color: rgb(242, 160, 65); stop-opacity: 1;"></stop></linearGradient></defs><!----><g data-v-423bf9ae="" id="03968f7b-eb3a-4f20-bee2-e08f1d5b3161" fill="#ffffff" transform="matrix(5.759321212813602,0,0,5.759321212813602,101.35442518519932,1.8908760931181376)"><path d="M0.70 5.57L0.70 3.72L7.41 3.72L7.41 3.72Q7.41 4.16 7.28 4.50L7.28 4.50L7.28 4.50Q7.15 4.84 6.94 5.08L6.94 5.08L6.94 5.08Q6.73 5.32 6.46 5.45L6.46 5.45L6.46 5.45Q6.19 5.57 5.88 5.57L5.88 5.57L4.76 5.57L4.76 13.52L2.87 13.52L2.87 5.57L0.70 5.57ZM10.88 6.10L10.88 6.10L10.88 6.10Q11.98 6.10 12.84 6.64L12.84 6.64L12.84 6.64Q13.71 7.17 14.20 7.99L14.20 7.99L14.20 7.99Q14.69 8.82 14.72 9.83L14.72 9.83L14.72 9.83Q14.76 10.84 14.21 11.80L14.21 11.80L14.21 11.80Q13.75 12.60 13.01 13.08L13.01 13.08L13.01 13.08Q12.26 13.55 11.42 13.67L11.42 13.67L11.42 13.67Q10.58 13.79 9.74 13.53L9.74 13.53L9.74 13.53Q8.89 13.27 8.22 12.60L8.22 12.60L8.22 12.60Q7.46 11.83 7.21 10.82L7.21 10.82L7.21 10.82Q6.96 9.81 7.25 8.81L7.25 8.81L7.25 8.81Q7.38 8.40 7.67 8.13L7.67 8.13L7.67 8.13Q7.95 7.87 8.32 7.74L8.32 7.74L8.32 7.74Q8.68 7.62 9.07 7.63L9.07 7.63L9.07 7.63Q9.46 7.64 9.80 7.79L9.80 7.79L9.80 7.79Q10.14 7.94 10.37 8.21L10.37 8.21L10.37 8.21Q10.60 8.48 10.64 8.88L10.64 8.88L10.64 8.88Q10.43 8.72 10.14 8.71L10.14 8.71L10.14 8.71Q9.84 8.71 9.57 8.84L9.57 8.84L9.57 8.84Q9.30 8.97 9.11 9.25L9.11 9.25L9.11 9.25Q8.92 9.52 8.92 9.93L8.92 9.93L8.92 9.93Q8.92 10.63 9.21 11.09L9.21 11.09L9.21 11.09Q9.51 11.55 9.95 11.78L9.95 11.78L9.95 11.78Q10.39 12.01 10.90 12.01L10.90 12.01L10.90 12.01Q11.41 12.01 11.85 11.77L11.85 11.77L11.85 11.77Q12.29 11.54 12.59 11.07L12.59 11.07L12.59 11.07Q12.88 10.60 12.88 9.90L12.88 9.90L12.88 9.90Q12.88 9.35 12.68 8.93L12.68 8.93L12.68 8.93Q12.49 8.51 12.16 8.24L12.16 8.24L12.16 8.24Q11.83 7.97 11.40 7.86L11.40 7.86L11.40 7.86Q10.96 7.76 10.47 7.85L10.47 7.85L10.47 7.85Q10.26 7.60 9.96 7.46L9.96 7.46L9.96 7.46Q9.66 7.31 9.31 7.26L9.31 7.26L9.31 7.26Q8.96 7.21 8.61 7.27L8.61 7.27L8.61 7.27Q8.26 7.34 7.95 7.52L7.95 7.52L7.95 7.52Q8.51 6.85 9.25 6.48L9.25 6.48L9.25 6.48Q10.00 6.10 10.88 6.10ZM21.10 13.51L21.10 12.74L21.10 12.74Q20.58 13.24 19.97 13.48L19.97 13.48L19.97 13.48Q19.36 13.71 18.75 13.69L18.75 13.69L18.75 13.69Q18.13 13.66 17.56 13.41L17.56 13.41L17.56 13.41Q16.98 13.15 16.54 12.66L16.54 12.66L16.54 12.66Q16.10 12.18 15.83 11.51L15.83 11.51L15.83 11.51Q15.57 10.84 15.57 9.98L15.57 9.98L15.57 9.98Q15.57 9.16 15.86 8.47L15.86 8.47L15.86 8.47Q16.14 7.78 16.63 7.29L16.63 7.29L16.63 7.29Q17.11 6.79 17.72 6.52L17.72 6.52L17.72 6.52Q18.34 6.26 19.01 6.29L19.01 6.29L19.01 6.29Q19.71 6.31 20.11 6.58L20.11 6.58L20.11 6.58Q20.51 6.85 20.68 7.20L20.68 7.20L20.68 7.20Q20.86 7.55 20.85 7.90L20.85 7.90L20.85 7.90Q20.85 8.26 20.72 8.48L20.72 8.48L20.72 8.48Q20.48 8.15 20.05 8.03L20.05 8.03L20.05 8.03Q19.63 7.91 19.25 7.91L19.25 7.91L19.25 7.91Q18.62 7.91 18.19 8.22L18.19 8.22L18.19 8.22Q17.77 8.53 17.55 8.99L17.55 8.99L17.55 8.99Q17.33 9.45 17.33 9.99L17.33 9.99L17.33 9.99Q17.33 10.53 17.54 10.99L17.54 10.99L17.54 10.99Q17.75 11.45 18.17 11.76L18.17 11.76L18.17 11.76Q18.59 12.07 19.24 12.07L19.24 12.07L19.24 12.07Q19.78 12.07 20.14 11.82L20.14 11.82L20.14 11.82Q20.50 11.58 20.71 11.19L20.71 11.19L20.71 11.19Q20.92 10.79 21.01 10.31L21.01 10.31L21.01 10.31Q21.10 9.83 21.10 9.35L21.10 9.35L21.10 3.74L21.10 3.74Q21.92 3.77 22.39 4.19L22.39 4.19L22.39 4.19Q22.86 4.61 22.86 5.17L22.86 5.17L22.86 13.51L21.10 13.51ZM27.78 6.10L27.78 6.10L27.78 6.10Q28.88 6.10 29.74 6.64L29.74 6.64L29.74 6.64Q30.60 7.17 31.09 7.99L31.09 7.99L31.09 7.99Q31.58 8.82 31.62 9.83L31.62 9.83L31.62 9.83Q31.65 10.84 31.11 11.80L31.11 11.80L31.11 11.80Q30.65 12.60 29.90 13.08L29.90 13.08L29.90 13.08Q29.16 13.55 28.32 13.67L28.32 13.67L28.32 13.67Q27.48 13.79 26.63 13.53L26.63 13.53L26.63 13.53Q25.79 13.27 25.12 12.60L25.12 12.60L25.12 12.60Q24.36 11.83 24.11 10.82L24.11 10.82L24.11 10.82Q23.86 9.81 24.15 8.81L24.15 8.81L24.15 8.81Q24.28 8.40 24.56 8.13L24.56 8.13L24.56 8.13Q24.85 7.87 25.21 7.74L25.21 7.74L25.21 7.74Q25.58 7.62 25.97 7.63L25.97 7.63L25.97 7.63Q26.36 7.64 26.70 7.79L26.70 7.79L26.70 7.79Q27.03 7.94 27.26 8.21L27.26 8.21L27.26 8.21Q27.50 8.48 27.54 8.88L27.54 8.88L27.54 8.88Q27.33 8.72 27.03 8.71L27.03 8.71L27.03 8.71Q26.74 8.71 26.47 8.84L26.47 8.84L26.47 8.84Q26.19 8.97 26.00 9.25L26.00 9.25L26.00 9.25Q25.82 9.52 25.82 9.93L25.82 9.93L25.82 9.93Q25.82 10.63 26.11 11.09L26.11 11.09L26.11 11.09Q26.40 11.55 26.84 11.78L26.84 11.78L26.84 11.78Q27.29 12.01 27.80 12.01L27.80 12.01L27.80 12.01Q28.31 12.01 28.75 11.77L28.75 11.77L28.75 11.77Q29.19 11.54 29.48 11.07L29.48 11.07L29.48 11.07Q29.78 10.60 29.78 9.90L29.78 9.90L29.78 9.90Q29.78 9.35 29.58 8.93L29.58 8.93L29.58 8.93Q29.39 8.51 29.06 8.24L29.06 8.24L29.06 8.24Q28.73 7.97 28.29 7.86L28.29 7.86L28.29 7.86Q27.86 7.76 27.37 7.85L27.37 7.85L27.37 7.85Q27.16 7.60 26.86 7.46L26.86 7.46L26.86 7.46Q26.56 7.31 26.21 7.26L26.21 7.26L26.21 7.26Q25.86 7.21 25.51 7.27L25.51 7.27L25.51 7.27Q25.16 7.34 24.85 7.52L24.85 7.52L24.85 7.52Q25.41 6.85 26.15 6.48L26.15 6.48L26.15 6.48Q26.89 6.10 27.78 6.10ZM34.72 3.72L34.72 11.75L38.08 11.75L38.08 13.52L32.87 13.52L32.87 5.19L32.87 5.19Q32.87 4.49 33.38 4.10L33.38 4.10L33.38 4.10Q33.88 3.71 34.72 3.72L34.72 3.72ZM39.76 13.52L39.76 7.74L39.76 7.74Q39.79 7.32 39.94 7.04L39.94 7.04L39.94 7.04Q40.08 6.76 40.32 6.59L40.32 6.59L40.32 6.59Q40.56 6.43 40.87 6.35L40.87 6.35L40.87 6.35Q41.19 6.27 41.57 6.27L41.57 6.27L41.57 13.52L39.76 13.52ZM40.67 3.29L40.67 3.29L40.67 3.29Q41.15 3.29 41.48 3.64L41.48 3.64L41.48 3.64Q41.83 3.98 41.83 4.47L41.83 4.47L41.83 4.47Q41.83 4.96 41.50 5.31L41.50 5.31L41.50 5.31Q41.30 5.50 41.04 5.58L41.04 5.58L41.04 5.58Q40.78 5.66 40.52 5.73L40.52 5.73L40.52 5.73Q40.26 5.81 40.05 5.92L40.05 5.92L40.05 5.92Q39.83 6.02 39.75 6.26L39.75 6.26L39.75 6.26Q39.68 6.03 39.60 5.68L39.60 5.68L39.60 5.68Q39.52 5.33 39.50 4.96L39.50 4.96L39.50 4.96Q39.48 4.58 39.54 4.22L39.54 4.22L39.54 4.22Q39.61 3.86 39.84 3.63L39.84 3.63L39.84 3.63Q40.18 3.29 40.67 3.29ZM46.83 8.50L46.83 8.50L46.83 8.50Q46.72 8.23 46.52 8.07L46.52 8.07L46.52 8.07Q46.33 7.91 46.10 7.83L46.10 7.83L46.10 7.83Q45.86 7.74 45.65 7.74L45.65 7.74L45.65 7.74Q45.43 7.73 45.29 7.78L45.29 7.78L45.29 7.78Q45.04 7.87 44.96 8.07L44.96 8.07L44.96 8.07Q44.88 8.27 45.04 8.46L45.04 8.46L45.04 8.46Q45.16 8.60 45.44 8.73L45.44 8.73L45.44 8.73Q45.71 8.86 46.05 9.02L46.05 9.02L46.05 9.02Q46.38 9.18 46.74 9.39L46.74 9.39L46.74 9.39Q47.10 9.59 47.39 9.87L47.39 9.87L47.39 9.87Q47.68 10.15 47.87 10.53L47.87 10.53L47.87 10.53Q48.06 10.91 48.06 11.42L48.06 11.42L48.06 11.42Q48.06 12.03 47.80 12.48L47.80 12.48L47.80 12.48Q47.53 12.94 47.09 13.22L47.09 13.22L47.09 13.22Q46.65 13.50 46.10 13.60L46.10 13.60L46.10 13.60Q45.54 13.71 44.98 13.62L44.98 13.62L44.98 13.62Q44.41 13.54 43.88 13.24L43.88 13.24L43.88 13.24Q43.34 12.94 42.95 12.42L42.95 12.42L44.07 11.21L44.07 11.21Q44.42 11.63 44.81 11.82L44.81 11.82L44.81 11.82Q45.19 12.00 45.52 12.02L45.52 12.02L45.52 12.02Q45.85 12.04 46.07 11.92L46.07 11.92L46.07 11.92Q46.30 11.80 46.35 11.60L46.35 11.60L46.35 11.60Q46.40 11.40 46.23 11.15L46.23 11.15L46.23 11.15Q46.06 10.91 45.58 10.67L45.58 10.67L45.58 10.67Q45.14 10.44 44.71 10.21L44.71 10.21L44.71 10.21Q44.28 9.97 43.95 9.67L43.95 9.67L43.95 9.67Q43.62 9.38 43.42 9.02L43.42 9.02L43.42 9.02Q43.22 8.65 43.22 8.16L43.22 8.16L43.22 8.16Q43.22 7.66 43.43 7.27L43.43 7.27L43.43 7.27Q43.64 6.87 43.99 6.61L43.99 6.61L43.99 6.61Q44.34 6.34 44.79 6.22L44.79 6.22L44.79 6.22Q45.23 6.09 45.71 6.10L45.71 6.10L45.71 6.10Q46.52 6.15 46.95 6.46L46.95 6.46L46.95 6.46Q47.38 6.78 47.48 7.18L47.48 7.18L47.48 7.18Q47.59 7.57 47.41 7.95L47.41 7.95L47.41 7.95Q47.24 8.33 46.83 8.50ZM49.94 6.33L49.94 5.15L49.94 5.15Q49.94 4.76 50.09 4.49L50.09 4.49L50.09 4.49Q50.23 4.21 50.48 4.05L50.48 4.05L50.48 4.05Q50.72 3.88 51.04 3.80L51.04 3.80L51.04 3.80Q51.37 3.72 51.70 3.72L51.70 3.72L51.70 6.33L53.33 6.33L53.33 6.33Q53.33 6.61 53.28 6.87L53.28 6.87L53.28 6.87Q53.23 7.14 53.09 7.36L53.09 7.36L53.09 7.36Q52.95 7.57 52.71 7.71L52.71 7.71L52.71 7.71Q52.47 7.84 52.09 7.84L52.09 7.84L51.70 7.84L51.70 11.80L51.70 11.80Q51.70 12.03 51.87 12.12L51.87 12.12L51.87 12.12Q52.04 12.21 52.26 12.20L52.26 12.20L52.26 12.20Q52.49 12.19 52.71 12.10L52.71 12.10L52.71 12.10Q52.93 12.00 53.03 11.83L53.03 11.83L53.03 11.83Q53.21 12.29 53.05 12.65L53.05 12.65L53.05 12.65Q52.89 13.01 52.55 13.22L52.55 13.22L52.55 13.22Q52.21 13.44 51.75 13.50L51.75 13.50L51.75 13.50Q51.30 13.57 50.90 13.43L50.90 13.43L50.90 13.43Q50.50 13.30 50.22 12.96L50.22 12.96L50.22 12.96Q49.94 12.61 49.94 12.03L49.94 12.03L49.94 7.84L49.04 7.84L49.04 6.33L49.94 6.33Z"></path></g><!----><g data-v-423bf9ae="" id="fc82d892-575b-403f-9dd5-a07eceaa88ed" transform="matrix(1.0629000345865884,0,0,1.0629000345865884,-11.423184605717438,-1.9755348384394864)" stroke="none" fill="#ffffff"><path d="M54.858 70.501h17.296v-6.834H61.692zM41.195 84.165h30.959v-6.832H48.027zM57.939 36.335H31.396v6.832h19.711zM31.396 53.053l3.78 3.779h2.266L44.275 50H31.396zM72.154 53.205l-3.627 3.627h3.627zM71.606 22.669h-40.21v6.833h33.376z"></path><path d="M21.485 43.142l2.829 2.829.129.129V9.003h54.664v6.165l.126-.126 2.829-2.829 2.83 2.831 1.047 1.049V2.17h-68.33v44.851l1.048-1.049zM79.107 90.998H24.443v-13.82l-6.834-6.836v27.489h68.33V39.42l-6.832 6.832z"></path><path d="M85.939 21.752l-3.877-3.881-2.955 2.954-6.953 6.953-1.724 1.724-6.833 6.833-6.832 6.832L49.932 50 43.1 56.832l-6.791 6.79-11.866-11.865-2.957-2.957-3.877 3.879-6 6.003 6 6.002 6.834 6.836 6.953 6.955 4.916 4.917 6.058-6.059 3.825-3.825 3.007-3.007 6.834-6.834 6.835-6.835L69.703 50l9.404-9.405 6.832-6.832 6.003-6.003z"></path></g><!----></svg>