<svg width="25" height="25" viewBox="0 0 25 25" fill="none" xmlns="http://www.w3.org/2000/svg">
<path d="M12.5 14.0625C16.3818 14.0625 19.5312 10.9131 19.5312 7.03125C19.5312 3.14941 16.3818 0 12.5 0C8.61816 0 5.46875 3.14941 5.46875 7.03125C5.46875 10.9131 8.61816 14.0625 12.5 14.0625ZM18.75 15.625H16.0596C14.9756 16.123 13.7695 16.4062 12.5 16.4062C11.2305 16.4062 10.0293 16.123 8.94043 15.625H6.25C2.79785 15.625 0 18.4229 0 21.875V22.6562C0 23.9502 1.0498 25 2.34375 25H22.6562C23.9502 25 25 23.9502 25 22.6562V21.875C25 18.4229 22.2021 15.625 18.75 15.625Z" fill="white"/>
</svg>
