<svg xmlns="http://www.w3.org/2000/svg" data-name="Layer 1" width="434.25755" height="761.18545" viewBox="0 0 434.25755 761.18545" xmlns:xlink="http://www.w3.org/1999/xlink"><path d="M470.53814,150.812,457.49763,92.94325l-4.2535-18.85191a6.0132,6.0132,0,0,0-7.1943-4.53362l-6.424,1.45287L388.1111,82.63338a6.00016,6.00016,0,0,0-4.53363,7.17667c-2.76558,25.74866,2.69571,49.50171,14.546,71.732.87521,1.66292,1.803,3.32584,2.76569,4.98875a5.93514,5.93514,0,0,0,1.698,3.01067,6.02479,6.02479,0,0,0,5.4787,1.52285l6.75669-1.52285,4.166-.94519,47.01615-10.60752A6.0037,6.0037,0,0,0,470.53814,150.812Z" transform="translate(-382.87122 -69.40728)" fill="#e6e6e6"/><path d="M465.14694,147.59131l-12.428-55.05062-2.97563-13.21562a5.62736,5.62736,0,0,0-6.72164-4.2535l-3.956.89273L393.22228,86.30921a5.6274,5.6274,0,0,0-4.25349,6.72165c.40256,20.04218,2.50308,38.229,11.13262,49.32672a25.06447,25.06447,0,0,0,17.1891,18.43183c.105.035.19252.07008.29754.105.07008.01752.15758.05256.22756.07008a24.87967,24.87967,0,0,0,12.2355.31506l30.84233-6.96673A5.62737,5.62737,0,0,0,465.14694,147.59131Z" transform="translate(-382.87122 -69.40728)" fill="#fff"/><path d="M419.47424,104.6649a7.17472,7.17472,0,0,1,8.39568-1.83068c3.05918,1.528,4.24616,4.779,3.75739,8.01154-.546,3.61116-2.43229,6.89855-2.60361,10.59594-.14993,3.23577,1.05626,6.63569,3.92362,8.37775,2.05611,1.24919,4.17243-1.84326,2.10645-3.09843-3.39963-2.06545-2.2572-6.60432-1.27107-9.70029,1.23134-3.86583,2.51446-7.80685.99117-11.79014A10.75885,10.75885,0,0,0,417.011,101.841c-1.62225,1.74928.82053,4.59525,2.46324,2.8239Z" transform="translate(-382.87122 -69.40728)" fill="#a5be00"/><circle cx="53.10542" cy="67.4631" r="3.74666" fill="#a5be00"/><path d="M671.78553,793.62382l-59.31518-.35422-19.32434-.113c-3.32055-.01728-6.04306,1.24516-6.0796,2.82019l-.07779,3.12386-.651,25.04745c-.04952,1.565,2.608,2.86449,5.92844,2.88181a251.579,251.579,0,0,0,73.14929,1.18587q2.731-.3311,5.49443-.72681a11.21563,11.21563,0,0,0,3.32254-.452c1.64013-.50577,2.7243-1.3732,2.75286-2.36011l.087-3.28506.04754-2.02616.59447-22.86012C677.75052,794.9306,675.089,793.63917,671.78553,793.62382Z" transform="translate(-382.87122 -69.40728)" fill="#e6e6e6"/><path d="M667.40149,795.75664l-56.43183-.32656-13.54537-.082c-3.10405-.01841-5.65864,1.16065-5.69743,2.633l-.04981,1.92348-.57772,22.29013c-.03879,1.4723,2.44682,2.68406,5.55087,2.70247,19.58831,2.02074,37.766,3.05382,50.56358.29408,9.316.04718,17.53244-2.3348,21.918-5.90152.05846-.0446.11285-.08111.17121-.12572.03331-.03041.0877-.06692.121-.09728a7.80929,7.80929,0,0,0,3.14628-5.61053l.38194-14.997C672.99115,796.98682,670.50541,795.77509,667.40149,795.75664Z" transform="translate(-382.87122 -69.40728)" fill="#fff"/><path d="M615.04678,812.10329c-1.7297-1.2285-1.91077-2.89848.16792-4.07515,2.1963-1.24322,5.63408-1.433,8.66485-.85158,3.38581.64949,6.14564,1.88168,9.7023,2.36778,3.11262.4254,6.69965.2432,9.05964-.888,1.6923-.81113-.82451-2.128-2.52492-1.313-2.79809,1.34114-6.94786.31435-9.73041-.48147-3.47447-.99371-7.01006-2.01959-11.23814-1.7553-7.69255.48085-11.70566,4.77826-7.41974,7.82227,1.325.94105,4.66021.12732,3.3185-.8256Z" transform="translate(-382.87122 -69.40728)" fill="#e6e6e6"/><ellipse cx="267.33175" cy="738.62768" rx="3.74666" ry="1.77717" fill="#e6e6e6"/><path d="M386.23115,359.36481c-5.15378-21.64585-4.29431-42.9657,4.53083-63.85372a4.89248,4.89248,0,0,1,5.22058-4.52878l48.22373,3.42178a4.89246,4.89246,0,0,1,4.52876,5.22057l-4.53083,63.85372a4.89246,4.89246,0,0,1-5.22055,4.52879l-48.22373-3.42178A4.89247,4.89247,0,0,1,386.23115,359.36481Z" transform="translate(-382.87122 -69.40728)" fill="#f2f2f2"/><path d="M391.29871,340.34079c-4.12451-10.66663-1.48736-25.33682,2.91283-41.051a4.58186,4.58186,0,0,1,4.88923-4.24135l41.44423,2.94074a4.582,4.582,0,0,1,4.24158,4.88924l-4.03183,56.82112a4.582,4.582,0,0,1-4.88945,4.24133l-25.67384-1.82173A20.40973,20.40973,0,0,1,391.29871,340.34079Z" transform="translate(-382.87122 -69.40728)" fill="#fff"/><path d="M419.99174,343.12468q-1.89889-.3263-3.79773-.65252a12.75221,12.75221,0,0,0,.99445-4.33808c.59912-7.99163.65954-16.05957.97918-24.06756a1.51851,1.51851,0,0,0-2.56067-1.06067q-4.76889,3.94995-9.53784,7.8999c-1.48816,1.23261.64441,3.34461,2.12134,2.12134q3.42288-2.83512,6.84583-5.67023-.31422,7.87061-.62836,15.7414c-.10047,2.51831.20563,5.57647-.82538,7.94378a3.82493,3.82493,0,0,1-.54694.88745q-2.10232-.36126-4.20471-.72247c-1.008-.17316-2.28882.66834-1.84521,1.84522.96472,2.55908,3.80853,3.36755,6.247,2.38128a5.0779,5.0779,0,0,0,.62237-.33337l5.33917.91736C421.08256,346.342,421.89372,343.45147,419.99174,343.12468Z" transform="translate(-382.87122 -69.40728)" fill="#f2f2f2"/><path d="M561.23115,365.36481c-5.15378-21.64585-4.29431-42.9657,4.53083-63.85372a4.89248,4.89248,0,0,1,5.22058-4.52878l48.22373,3.42178a4.89246,4.89246,0,0,1,4.52876,5.22057l-4.53083,63.85372a4.89246,4.89246,0,0,1-5.22055,4.52879l-48.22373-3.42178A4.89247,4.89247,0,0,1,561.23115,365.36481Z" transform="translate(-382.87122 -69.40728)" fill="#f2f2f2"/><path d="M566.29871,346.34079c-4.12451-10.66663-1.48736-25.33682,2.91283-41.051a4.58186,4.58186,0,0,1,4.88923-4.24135l41.44423,2.94074a4.582,4.582,0,0,1,4.24158,4.88924l-4.03183,56.82112a4.582,4.582,0,0,1-4.88945,4.24133l-25.67384-1.82173A20.40973,20.40973,0,0,1,566.29871,346.34079Z" transform="translate(-382.87122 -69.40728)" fill="#fff"/><path d="M593.3538,335.507a8.44646,8.44646,0,0,0,1.55511-.94306,8.60723,8.60723,0,0,0,2.81476-8.95166c-1.94452-7.144-10.49011-7.18762-16.38983-6.32794-1.90326.27735-1.09405,3.16846.79755,2.89282,3.976-.57934,10.218-1.04754,12.35455,3.29511a5.70534,5.70534,0,0,1-.91339,6.28467,5.55391,5.55391,0,0,1-3.37634,1.60522,8.92264,8.92264,0,0,0-3.928-.73273c-1.39008.06562-2.16474,2.08728-.75708,2.79517a9.01185,9.01185,0,0,0,4.0097.94544,6.50006,6.50006,0,0,1,3.66669,6.19793,6.72272,6.72272,0,0,1-7.69171,5.63288c-1.88513-.37922-2.69177,2.51184-.79755,2.89282a9.74993,9.74993,0,0,0,11.45545-8.19031A9.11121,9.11121,0,0,0,593.3538,335.507Z" transform="translate(-382.87122 -69.40728)" fill="#f2f2f2"/><polygon points="272.105 705.445 255.138 705.444 247.067 640 272.108 640.002 272.105 705.445" fill="#ffb6b6"/><path d="M655.57311,792.55223l-52.175-.002v-.65976a20.30911,20.30911,0,0,1,20.308-20.30767h.00126l9.53041-7.23023,17.78167,7.23138,4.55456.00011Z" transform="translate(-382.87122 -69.40728)" fill="#2f2e41"/><polygon points="350.105 741.445 333.138 741.444 325.067 676 350.108 676.002 350.105 741.445" fill="#ffb6b6"/><path d="M733.57311,828.55223l-52.175-.002v-.65976a20.30911,20.30911,0,0,1,20.308-20.30767h.00126l9.53041-7.23023,17.78167,7.23138,4.55456.00011Z" transform="translate(-382.87122 -69.40728)" fill="#2f2e41"/><path d="M524.22665,287.49041a12.06788,12.06788,0,0,0,18.3735-.45414l57.8516,16.46737,8.48906-14.88182-68.85423-19.05617a12.051,12.051,0,0,0-15.85993,17.92476Z" transform="translate(-382.87122 -69.40728)" fill="#ffb6b6"/><path d="M674.667,425.22617,613.79472,564.40728l-7,22L627.95845,740.8235l34.16023-1.667-.07675-19.80249s-8.12947-4.40859-.02636-6.803,7.76175-8.47335-.06757-17.43391-.367-94.70974-.367-94.70974,32.23738-30.87035,28.72557-38.93518,3.00751-8.06482,3.00751-8.06482,6.95034-1.243,7.21552-4.62149,5.41632-10.17129,5.41632-10.17129l-1.80454,237.823h29.47434s13.47536-22.39246,10.82721-27.21136-6.35185-5.29133,0-11.05511,15.67428-1.04725,11.51306-11.90552-3.0921-128.03414-3.0921-128.03414,16.39632-67.99739,6.26624-72.6144-5.09378-3.96532.88807-10.29116-4.1633-5.74782.90928-10.53683,5.27711-61.15214,5.27711-61.15214Z" transform="translate(-382.87122 -69.40728)" fill="#2f2e41"/><path d="M770.79472,464.40728c-42.67-.1-79.28,9.49-121.95,9.39,2.78-19.23959,12.49543-49.39649,15.274-68.64082,3.908-27.06713.87769-43.223,4.776-70.28923.39-2.65.77-5.29,1.15-7.94,1.54-10.7-2.15-21.4,4.47-32.7,2.82-4.82,7.51-9.74,15.28-14.82,16.14,1.64,15.86-5.64,32-4l5.34,10.64c.68,4.04,3.13,6.67,6.45,8.66,6.83,4.13,17.35,5.57,23.67,11.16,7.94,7.02,7.41,18.25,5.05,29.21-.84,3.9-1.91,7.76-2.92,11.39-8.12916,29.24663,2.26154,51.55937,10.73394,78.6892.8034,2.5726-6.8055,12.52114-6,15,1.36739,4.20048,6.26221,9.42571,5.48287,12.26448C768.63684,455.93487,767.675,459.241,770.79472,464.40728Z" transform="translate(-382.87122 -69.40728)" fill="#a5be00"/><path d="M762.30473,335.07726l-93.41-.21-3-.01-110.776-40.70082,14.176.48079,6.58-15.17,3.17-7.29,65.29,21.82,30.18.23,56.9.42c.73.01,1.45.03,2.17.06,6.83,4.13,17.35,5.57,23.67,11.16C765.19474,312.88726,764.66471,324.11724,762.30473,335.07726Z" transform="translate(-382.87122 -69.40728)" fill="#a5be00"/><circle cx="315.61568" cy="172.74238" r="30.35523" fill="#ffb6b6"/><path d="M694.173,268.241l2.47263,7.90626c5.48266-2.70663,21.039-6.46224,25.60427-10.52964s8.09625-9.68028,8.3124-15.79083c.11163-3.15584-.65256-6.33936-.12819-9.45334.59251-3.51869,2.76431-6.56908,3.75846-9.996a15.94482,15.94482,0,0,0-8.60175-18.40534c-5.03174-2.21135-10.78558-1.59063-16.25576-2.12507s-11.57219-3.009-13.11186-8.28516c-.57566-1.97269-.5097-4.29862-2.27191-5.59026a4.312,4.312,0,0,0-5.70961.8255q-.12173.13819-.234.2791c-4.63049,5.80881-13.35744,6.24006-17.92443.38119q-.44768-.57431-.86068-1.17517a9.9482,9.9482,0,0,0-.39383,14.13311,7.67218,7.67218,0,0,1-7.46479-5.88707c-2.09487,2.8934-4.24492,5.91084-4.91847,9.41892s.57662,7.6572,3.79382,9.20959a12.32668,12.32668,0,0,0,5.16762.84612c-8.29938,9.81679-3.31988,9.53436,13.48737.25625,8.33789.15842,5.04489,7.90607,5.153,16.24475v0c3.92391-.377,7.96533-.74569,11.67583.90684a8.96128,8.96128,0,0,1,4.16462,3.57852c2.45222,4.21228.01936,8.59024-2.13688,12.42155-1.84317,3.275-3.59054,7.219-2.061,10.65171" transform="translate(-382.87122 -69.40728)" fill="#2f2e41"/><path d="M638.92558,522.71468a12.06788,12.06788,0,0,0,3.65622-18.01176L671.54023,451.983l-12.613-11.59509-33.93654,62.86774a12.051,12.051,0,0,0,13.93485,19.45905Z" transform="translate(-382.87122 -69.40728)" fill="#ffb6b6"/><path d="M709.55472,276.17728l-6.75,120.92-32.52,75.99-21.166,28.06919,2.406-12.71919-14.59-7.3-1.37-.68,19.42-49.19,5.86-14.84,2.73-44.67,2.58-42.24a52.634,52.634,0,0,1,19.34-37.63l16.2-13.16Z" transform="translate(-382.87122 -69.40728)" fill="#a5be00"/><path d="M482.23115,276.36481c-5.15378-21.64585-4.29431-42.9657,4.53083-63.85372a4.89248,4.89248,0,0,1,5.22058-4.52878l48.22373,3.42178a4.89246,4.89246,0,0,1,4.52876,5.22057l-4.53083,63.85372a4.89246,4.89246,0,0,1-5.22055,4.52879l-48.22373-3.42178A4.89247,4.89247,0,0,1,482.23115,276.36481Z" transform="translate(-382.87122 -69.40728)" fill="#f2f2f2"/><path d="M487.29871,257.34079c-4.12451-10.66663-1.48736-25.33682,2.91283-41.051a4.58186,4.58186,0,0,1,4.88923-4.24135l41.44423,2.94074a4.582,4.582,0,0,1,4.24158,4.88924l-4.03183,56.82112a4.582,4.582,0,0,1-4.88945,4.24133l-25.67384-1.82173A20.40973,20.40973,0,0,1,487.29871,257.34079Z" transform="translate(-382.87122 -69.40728)" fill="#fff"/><path d="M512.78483,228.74657c-4.24841-1.4743-8.97253,1.8855-9.45471,6.24152-.54645,4.93731,4.7644,8.835,9.36218,7.49316,1.84955-.53979,1.06256-3.43573-.79748-2.89288-3.37018.98358-6.96515-2.6554-5.02753-5.90888a4.43139,4.43139,0,0,1,4.52661-2.21478,5.0178,5.0178,0,0,1,3.344,3.03461c1.65351,3.72638-.31152,7.50952-2.91619,10.218-1.48548,1.54467-3.2284,2.74511-4.82947,4.15313a6.98286,6.98286,0,0,0-2.746,4.954,5.99737,5.99737,0,0,0,3.41217,5.18237c2.55767,1.31537,5.467.89716,8.18786.45936,1.90106-.30591,1.09424-3.19727-.79754-2.89283-2.3797.38288-5.94263.96308-7.45057-1.51831-1.29138-2.12494,1.36914-3.99078,2.81879-5.12121,3.64331-2.84095,7.32764-6.50965,7.8747-11.34C518.73979,234.63677,516.72874,230.11528,512.78483,228.74657Z" transform="translate(-382.87122 -69.40728)" fill="#a5be00"/><path d="M762.8699,813.25977a2.26935,2.26935,0,0,0,1.64469-3.93333l-.1555-.61819q.0307-.07427.06178-.14839a6.09417,6.09417,0,0,1,11.24139.04176c1.83858,4.42818,4.17942,8.86389,4.75579,13.54595a18.02864,18.02864,0,0,1-.31648,6.20046,72.28145,72.28145,0,0,0,6.57515-30.02076,69.76381,69.76381,0,0,0-.43275-7.783q-.35848-3.17781-.9947-6.31034a73.11893,73.11893,0,0,0-14.50012-30.98962,19.459,19.459,0,0,1-8.09295-8.39652,14.84331,14.84331,0,0,1-1.34991-4.05617c.394.05167,1.48556-5.94866,1.1884-6.3168.54906-.83317,1.53178-1.24733,2.13144-2.06034,2.98232-4.04341,7.0912-3.33741,9.2362,2.15726,4.58224,2.31266,4.6266,6.14806,1.81495,9.83683-1.78877,2.34682-2.03455,5.52233-3.60408,8.03479.16151.2067.32944.407.4909.61366a73.59073,73.59073,0,0,1,7.681,12.16859,30.59257,30.59257,0,0,1,1.82641-14.20959c1.74819-4.21731,5.02491-7.76915,7.91045-11.415a6.27922,6.27922,0,0,1,11.184,3.08332q.00886.08062.01731.1612-.6429.36267-1.25864.76992a3.0782,3.0782,0,0,0,1.24107,5.60174l.06277.00967a30.628,30.628,0,0,1-.80734,4.57938c3.70179,14.31579-4.29012,19.5299-15.70148,19.76412-.25191.12917-.49738.25833-.74929.38109a75.114,75.114,0,0,1,4.04327,19.02779,71.24345,71.24345,0,0,1-.05168,11.50323l.01939-.13563a18.82564,18.82564,0,0,1,6.4266-10.87027c4.94561-4.06264,11.93282-5.55869,17.26826-8.82426a3.533,3.533,0,0,1,5.41121,3.43709l-.02182.1426a20.67548,20.67548,0,0,0-2.31871,1.11734q-.6429.36275-1.25864.76991a3.07824,3.07824,0,0,0,1.24108,5.6018l.06282.00965c.04519.00646.084.013.12911.01944a30.65462,30.65462,0,0,1-5.63854,8.82922c-2.31464,12.49712-12.256,13.68282-22.89023,10.04354h-.00648a75.09206,75.09206,0,0,1-5.0444,14.7262H763.32146c-.06463-.20021-.12273-.40692-.18089-.60717a20.47474,20.47474,0,0,0,4.98629-.297c-1.337-1.64059-2.674-3.2941-4.011-4.93462a1.11912,1.11912,0,0,1-.084-.0969c-.67817-.8396-1.36282-1.67283-2.041-2.51245l-.00037-.001a29.99044,29.99044,0,0,1,.87876-7.63984Z" transform="translate(-382.87122 -69.40728)" fill="#f2f2f2"/><path d="M561.31855,829.40272a1.18646,1.18646,0,0,0,1.19006,1.19h253.29a1.19,1.19,0,1,0,0-2.38h-253.29A1.18651,1.18651,0,0,0,561.31855,829.40272Z" transform="translate(-382.87122 -69.40728)" fill="#ccc"/><path d="M433.80718,171.94012c-1.25146,18.49339-.65024,39.48221,13.70529,53.20138a32.86133,32.86133,0,0,0,11.78253,7.30243c1.82437.64311,2.60907-2.25425.79752-2.89283-7.37453-2.59959-13.17629-8.31245-17.04186-14.99167-4.53158-7.83-6.2606-16.86281-6.63914-25.816a153.14075,153.14075,0,0,1,.39566-16.80334c.13042-1.92716-2.87013-1.91911-3,0Z" transform="translate(-382.87122 -69.40728)" fill="#3f3d56"/><path d="M456.16937,214.25965c3.55835,1.65308,7.288,3.33513,10.10278,6.14585,2.56779,2.56406,4.36066,6.304,3.32031,9.95874-1.70684,5.996-9.30837,8.25675-14.60828,9.68668a1.50128,1.50128,0,0,0,.79752,2.89284c5.33141-1.43843,11.30948-3.44656,14.792-8.01084,4.12085-5.40083,2.16456-12.51974-2.46451-16.92522-2.98218-2.83815-6.73353-4.62322-10.42569-6.33846-1.73985-.80826-3.26531,1.7769-1.51416,2.59041Z" transform="translate(-382.87122 -69.40728)" fill="#3f3d56"/></svg>