<svg width="460" height="386" viewBox="0 0 460 386" fill="none" xmlns="http://www.w3.org/2000/svg">
<g clip-path="url(#clip0_10_4348)">
<path d="M426.649 10.6618H328.562V107.748H426.649V10.6618Z" fill="#E0E0E0"/>
<path d="M420.006 10.6618H321.92V107.748H420.006V10.6618Z" fill="#FAFAFA"/>
<path d="M420.034 107.774H321.883V10.6269H420.034V107.774ZM321.947 107.713H419.97V10.688H321.947V107.713Z" fill="#E0E0E0"/>
<path d="M406.822 23.7125H335.104V94.6974H406.822V23.7125Z" fill="#FAFAFA"/>
<path d="M335.104 95.1598C334.598 95.8766 334.002 96.5328 333.331 97.1139C332.191 98.2654 330.574 99.8182 328.737 101.476C326.899 103.133 325.273 104.669 324.051 105.733C323.433 106.356 322.739 106.906 321.984 107.373C322.489 106.663 323.078 106.011 323.739 105.428C324.887 104.285 326.495 102.723 328.332 101.066C330.17 99.4082 331.805 97.8729 333.027 96.7998C333.649 96.1775 334.346 95.627 335.104 95.1598Z" fill="#E0E0E0"/>
<path d="M406.822 94.9853C407.571 95.4701 408.258 96.035 408.871 96.669C410.084 97.7594 411.719 99.2861 413.465 101.031C415.21 102.776 416.827 104.32 417.958 105.48C418.613 106.068 419.19 106.73 419.676 107.451C418.93 106.966 418.243 106.405 417.627 105.777C416.423 104.686 414.779 103.159 413.033 101.415C411.287 99.6699 409.67 98.1171 408.549 96.9568C407.885 96.3749 407.304 95.712 406.822 94.9853Z" fill="#E0E0E0"/>
<path d="M406.62 23.8957C407.132 23.1829 407.726 22.5274 408.393 21.9416C409.532 20.7988 411.15 19.2459 412.987 17.5797C414.825 15.9135 416.451 14.3955 417.673 13.3225C418.296 12.7022 418.993 12.1519 419.749 11.6825C419.244 12.3947 418.652 13.0477 417.985 13.6279C416.837 14.7794 415.229 16.3322 413.391 17.9897C411.554 19.6472 409.918 21.1913 408.696 22.2556C408.081 22.8845 407.383 23.4357 406.62 23.8957Z" fill="#E0E0E0"/>
<path d="M334.911 24.0702C334.157 23.5915 333.466 23.0292 332.853 22.3952C331.64 21.3047 330.005 19.7781 328.259 18.0333C326.513 16.2886 324.896 14.7532 323.766 13.593C323.113 13.0031 322.536 12.3412 322.048 11.6214C322.797 12.1029 323.484 12.665 324.097 13.2964C325.301 14.3781 326.945 15.9135 328.691 17.6582C330.436 19.403 332.053 20.9558 333.184 22.116C333.837 22.702 334.416 23.3578 334.911 24.0702Z" fill="#E0E0E0"/>
<path d="M406.62 94.6887C406.62 94.6887 406.62 94.5666 406.62 94.3485C406.62 94.1304 406.62 93.7814 406.62 93.354C406.62 92.4816 406.62 91.1818 406.62 89.5242C406.62 86.1569 406.62 81.2716 406.547 75.0603C406.547 62.629 406.464 44.9111 406.409 23.7125L406.684 23.9742H335.177L335.49 23.6776C335.49 49.7266 335.49 74.1007 335.49 94.6538L335.214 94.4008L386.995 94.5317L401.539 94.6015H405.389H406.381H406.73C406.626 94.6099 406.522 94.6099 406.418 94.6015H405.453H401.659L387.17 94.6712L335.214 94.8021H334.938V94.5404C334.938 73.9873 334.938 49.6132 334.892 23.5642V23.2589H335.223H406.73H407.006V23.5206C406.951 44.789 406.905 62.5592 406.868 75.0341C406.868 81.2193 406.813 86.0958 406.795 89.437C406.795 91.0771 406.795 92.342 406.795 93.2231C406.795 93.6331 406.795 93.9472 406.795 94.1827C406.762 94.3585 406.703 94.5289 406.62 94.6887Z" fill="#E0E0E0"/>
<path d="M373.058 51.5586C371.766 49.7418 369.984 48.2886 367.897 47.3513C365.81 46.414 363.496 46.0272 361.198 46.2315C358.899 46.4358 356.701 47.2237 354.834 48.5125C352.966 49.8013 351.499 51.5435 350.585 53.5563C349.87 55.2714 349.519 57.1034 349.55 58.9475C349.582 60.7917 349.996 62.6118 350.769 64.304C352.347 67.6871 354.918 70.5672 358.174 72.6002C366.562 78.0264 378.717 77.7821 386.518 71.6144C389.521 69.3951 391.564 66.2078 392.26 62.6552C392.58 60.5926 392.284 58.4861 391.406 56.5751C390.529 54.664 389.105 53.0248 387.295 51.8438C385.486 50.6627 383.364 49.987 381.17 49.8934C378.977 49.7998 376.8 50.2921 374.886 51.3143" fill="#E0E0E0"/>
<path d="M373.094 51.5499C372.817 50.5842 372.19 49.7426 371.322 49.1743C370.454 48.6059 369.403 48.3473 368.354 48.4442L371.156 51.611C370.388 51.7154 369.663 52.0132 369.057 52.4735C368.452 52.9337 367.986 53.5395 367.711 54.2281C367.573 54.5508 367.536 55.0045 367.858 55.1702C367.974 55.2038 368.097 55.215 368.219 55.203C368.34 55.191 368.458 55.1561 368.565 55.1004L371.974 53.757C372.208 55.5642 372.906 57.2893 374.004 58.7819C374.786 57.1973 375.223 55.4794 375.29 53.7308L379.057 55.3098C378.755 54.2887 378.137 53.3771 377.284 52.6927C378.4 52.4865 379.468 52.0905 380.435 51.5237C380.729 51.3492 381.051 51.0526 380.913 50.756C380.775 50.4594 380.509 50.4594 380.242 50.442C377.755 50.2128 375.253 50.7056 373.067 51.8552" fill="#EBEBEB"/>
<path d="M372.846 52.8846C373.435 49.266 373.121 45.5666 371.928 42.0846C372.846 41.8927 373.931 41.7706 374.509 42.4423C374.805 42.87 374.938 43.381 374.886 43.8904C374.929 47.3033 374.245 50.6891 372.874 53.8442" fill="#EBEBEB"/>
<path d="M354.554 65.8393C354.329 65.6825 354.131 65.4943 353.966 65.281C353.48 64.7233 353.058 64.1179 352.707 63.4752C351.511 61.3423 351.088 58.8948 351.503 56.5107C351.918 54.1267 353.149 51.9388 355.004 50.2849C355.564 49.7837 356.181 49.342 356.842 48.9676C357.067 48.8119 357.319 48.6939 357.586 48.6187C356.763 49.1918 355.98 49.8154 355.243 50.4856C353.505 52.1417 352.354 54.2718 351.953 56.5786C351.551 58.8853 351.917 61.2537 353.001 63.3531C353.462 64.2125 353.981 65.043 354.554 65.8393Z" fill="white"/>
<path d="M358.33 68.5611C358.33 68.6571 357.696 68.5611 357.099 68.1249C356.502 67.6888 356.18 67.2526 356.272 67.1653C356.364 67.0781 356.786 67.4358 357.338 67.8109C357.889 68.186 358.376 68.4565 358.33 68.5611Z" fill="white"/>
<path d="M205.219 -17.6205H68.6082V117.597H205.219V-17.6205Z" fill="#E0E0E0"/>
<path d="M195.967 -17.6204H59.3564V117.597H195.967V-17.6204Z" fill="#FAFAFA"/>
<path d="M196.013 117.632H59.3103V-17.6642H196.013V117.632ZM59.4206 117.554H195.921V-17.5856H59.4206V117.554Z" fill="#E0E0E0"/>
<path d="M177.601 0.550995H77.7223V99.4082H177.601V0.550995Z" fill="#FAFAFA"/>
<path d="M77.7223 100.071C77.012 101.064 76.186 101.977 75.26 102.793C73.6614 104.389 71.4196 106.553 68.9114 108.9C66.4032 111.246 64.0879 113.34 62.379 114.823C60.6701 116.306 59.6227 117.196 59.4941 117.109C60.1991 116.118 61.0222 115.207 61.9472 114.396C63.5458 112.799 65.7876 110.636 68.3142 108.289C70.8408 105.942 73.1469 103.831 74.8466 102.339C76.5463 100.848 77.6396 99.984 77.7223 100.071Z" fill="#E0E0E0"/>
<path d="M177.601 99.8618C178.647 100.538 179.609 101.325 180.467 102.209C182.149 103.718 184.427 105.846 186.899 108.237C189.37 110.627 191.575 112.808 193.146 114.43C194.058 115.249 194.864 116.168 195.544 117.17C194.502 116.501 193.547 115.719 192.696 114.84C191.005 113.331 188.727 111.194 186.265 108.804C183.802 106.413 181.57 104.206 180.008 102.592C178.446 100.978 177.509 99.9055 177.601 99.8618Z" fill="#E0E0E0"/>
<path d="M177.325 0.821432C178.029 -0.173277 178.852 -1.08671 179.778 -1.90037C181.368 -3.50554 183.609 -5.66902 186.127 -8.00698C188.644 -10.3449 190.95 -12.4474 192.65 -13.9391C193.512 -14.8054 194.48 -15.5698 195.535 -16.216C195.627 -16.1375 194.68 -15.1081 193.082 -13.5116C191.483 -11.9152 189.241 -9.743 186.724 -7.40504C184.207 -5.06708 181.891 -2.94722 180.182 -1.46419C178.474 0.0188465 177.408 0.908669 177.325 0.821432Z" fill="#E0E0E0"/>
<path d="M77.4467 1.05695C76.396 0.389441 75.4336 -0.395503 74.5801 -1.281C72.8988 -2.79893 70.6203 -4.9188 68.1488 -7.3091C65.6773 -9.6994 63.4631 -11.8891 61.9012 -13.5029C60.9905 -14.325 60.1828 -15.2442 59.4941 -16.2422C59.586 -16.3294 60.6701 -15.4309 62.3514 -13.9217C64.0328 -12.4125 66.3205 -10.2664 68.7828 -7.87614C71.245 -5.48584 73.4684 -3.28746 75.0395 -1.66485C75.9517 -0.850494 76.7596 0.0630722 77.4467 1.05695Z" fill="#E0E0E0"/>
<path d="M177.325 99.4169C177.325 99.4169 177.325 99.2425 177.325 98.9371C177.325 98.6318 177.325 98.1433 177.325 97.5588C177.325 96.3084 177.325 94.5288 177.325 92.2199C177.325 87.5352 177.27 80.722 177.224 72.0681C177.224 54.7515 177.105 30.0895 177.031 0.533537L177.408 0.899935L77.8142 0.952276L78.2552 0.533537C78.2552 36.8242 78.2092 70.7682 78.1909 99.3995L77.8142 99.0331L149.937 99.225L170.196 99.3123L175.552 99.3559H176.939C177.098 99.3447 177.258 99.3447 177.417 99.3559C177.273 99.3643 177.129 99.3643 176.985 99.3559H175.635L170.352 99.3995L150.139 99.4955L77.7774 99.6786H77.4007V99.321C77.4007 70.6897 77.3548 36.7457 77.3364 0.455024V0.0362854H77.7866L177.38 0.0886289H177.775V0.455024C177.702 30.1157 177.628 54.8387 177.582 72.2076C177.582 80.8267 177.509 87.6137 177.481 92.2722C177.481 94.5578 177.481 96.32 177.435 97.5064C177.435 98.0735 177.435 98.5184 177.435 98.8412C177.421 99.0364 177.384 99.2295 177.325 99.4169Z" fill="#E0E0E0"/>
<path d="M127.234 19.1674C126.894 20.2579 121.042 29.0165 112.608 31.9913C104.173 34.9661 97.9075 38.2636 100.241 42.1806C102.575 46.0976 112.948 43.969 112.948 43.969C112.948 43.969 91.9171 65.6736 111.716 78.0787C135.852 93.1969 161.081 39.0575 161.081 39.0575L127.234 19.1674Z" fill="#EBEBEB"/>
<path d="M157.103 46.4901C157.039 46.5948 149.082 42.1282 139.334 36.4316C129.586 30.7351 121.731 26.1115 121.795 25.9632C121.86 25.8149 129.816 30.325 139.573 36.0216C149.33 41.7182 157.167 46.3854 157.103 46.4901Z" fill="#E0E0E0"/>
<path d="M153.373 52.9806C153.299 53.0852 144.709 48.2959 134.171 42.2853C123.633 36.2746 115.143 31.3195 115.208 31.2149C115.272 31.1102 123.862 35.8995 134.41 41.9102C144.957 47.9208 153.437 52.8759 153.373 52.9806Z" fill="#E0E0E0"/>
<path d="M148.862 59.1308C148.788 59.2355 139.141 53.8442 127.299 47.0921C115.456 40.3399 105.91 34.7742 105.974 34.6782C106.038 34.5822 115.695 39.9648 127.537 46.7169C139.38 53.4691 148.926 59.0348 148.862 59.1308Z" fill="#E0E0E0"/>
<path d="M143.23 66.7117C143.156 66.8164 135.678 62.4807 126.518 57.0371C117.358 51.5935 109.98 47.092 110.053 46.9961C110.127 46.9001 117.596 51.2271 126.766 56.6707C135.935 62.1143 143.294 66.6419 143.23 66.7117Z" fill="#E0E0E0"/>
<path d="M136.596 74.1007C136.532 74.1967 129.568 69.9307 121.042 64.5657C112.516 59.2006 105.671 54.7689 105.735 54.673C105.8 54.577 112.773 58.8429 121.299 64.208C129.825 69.5731 136.679 73.996 136.596 74.1007Z" fill="#E0E0E0"/>
<path d="M128.162 79.1953C127.793 79.0764 127.438 78.9184 127.106 78.7243C126.444 78.4015 125.489 77.9042 124.349 77.2849C122.016 76.0374 118.837 74.2403 115.391 72.1466C111.946 70.0529 108.905 68.0552 106.737 66.5634C105.653 65.8132 104.789 65.2025 104.201 64.7663C103.867 64.5621 103.559 64.3221 103.282 64.051C103.633 64.2107 103.965 64.4036 104.274 64.6267L106.902 66.3104C109.116 67.7411 112.176 69.6952 115.612 71.7802C119.048 73.8652 122.199 75.7059 124.487 77.0144L127.243 78.5847C127.571 78.7576 127.879 78.9623 128.162 79.1953Z" fill="#E0E0E0"/>
<path d="M108.363 44.4575C106.691 44.0576 105.109 43.3718 103.696 42.4336C102.205 41.6115 100.883 40.5418 99.7909 39.2756C99.8828 39.1796 101.573 40.6452 103.944 42.0672C106.314 43.4891 108.418 44.3441 108.363 44.4575Z" fill="#E0E0E0"/>
<path d="M159.51 37.9234C159.426 38.0897 159.325 38.2476 159.207 38.3945L158.288 39.6856C157.471 40.811 156.258 42.4161 154.742 44.3964C151.71 48.3395 147.392 53.7308 142.55 59.5757C137.708 65.4206 133.096 70.585 129.687 74.2839C128.006 76.1333 126.637 77.6164 125.672 78.6458L124.579 79.7973C124.457 79.9421 124.318 80.0737 124.166 80.1899C124.267 80.0313 124.384 79.8823 124.515 79.745L125.562 78.5324L129.476 74.092C132.774 70.3495 137.295 65.1414 142.173 59.314C147.052 53.4865 151.361 48.1215 154.466 44.2219L158.141 39.5984L159.152 38.3509C159.26 38.2001 159.38 38.0572 159.51 37.9234Z" fill="#E0E0E0"/>
<path d="M152.666 33.2998C152.767 33.3784 144.397 43.7683 133.941 56.5049C123.486 69.2416 114.95 79.5181 114.859 79.4396C114.767 79.3611 123.127 68.9711 133.583 56.2345C144.038 43.4979 152.564 33.23 152.666 33.2998Z" fill="#E0E0E0"/>
<path d="M143.12 28.1616C143.055 28.3434 142.965 28.5164 142.853 28.6763L141.99 30.1157C141.236 31.3544 140.097 33.1341 138.627 35.2801C135.696 39.642 131.341 45.356 126.196 51.4801C121.051 57.6041 116.209 62.9867 112.709 66.8862L108.538 71.4836L107.38 72.7223C107.256 72.8739 107.114 73.0115 106.957 73.1324C107.062 72.9683 107.182 72.8136 107.316 72.67L108.4 71.3789L112.461 66.6942C115.906 62.7424 120.729 57.3337 125.838 51.2096C130.946 45.0856 135.365 39.3715 138.351 35.1144C139.858 32.9858 141.034 31.241 141.843 30.0284L142.761 28.6326C142.868 28.4673 142.988 28.3098 143.12 28.1616Z" fill="#E0E0E0"/>
<path d="M135.292 23.9044C135.393 23.9742 128.245 32.9596 119.333 43.969C110.421 54.9783 103.108 63.8416 103.007 63.7718C102.906 63.702 110.053 54.7166 118.965 43.7073C127.877 32.6979 135.191 23.8346 135.292 23.9044Z" fill="#E0E0E0"/>
<path d="M129.403 20.2579C129.18 20.6748 128.929 21.077 128.649 21.4617C128.392 21.8456 128.08 22.3341 127.675 22.8139C127.271 23.2937 126.848 23.9306 126.297 24.5587C125.067 26.0367 123.741 27.441 122.328 28.7635C120.597 30.3754 118.756 31.8763 116.816 33.2562C114.847 34.6098 112.788 35.8396 110.651 36.9376C108.899 37.8215 107.092 38.6022 105.239 39.2756C104.458 39.5896 103.723 39.799 103.089 40.0084C102.455 40.2178 101.895 40.3661 101.435 40.4795C100.969 40.6284 100.489 40.7364 100.002 40.8022C100.448 40.608 100.908 40.4475 101.38 40.3224C101.831 40.1829 102.382 40.0084 102.997 39.7816C103.613 39.5547 104.348 39.3192 105.12 38.9964C106.94 38.2824 108.719 37.4757 110.449 36.58C112.561 35.4757 114.599 34.2461 116.549 32.8985C118.481 31.5334 120.322 30.0563 122.062 28.4756C123.478 27.1768 124.819 25.8052 126.077 24.3667C126.637 23.7648 127.078 23.1803 127.501 22.6831C127.923 22.1858 128.254 21.7496 128.53 21.3832C128.788 20.986 129.08 20.6096 129.403 20.2579Z" fill="#E0E0E0"/>
<path d="M103.567 281.926C103.172 282.013 106.13 296.163 106.13 296.163H113.729L117.082 282.484C112.726 281.072 108.035 280.879 103.567 281.926Z" fill="#E0E0E0"/>
<path d="M98.9916 361.574C98.9916 361.574 87.8195 331.913 89.3814 323.809C90.9433 315.704 94.3059 314.047 96.9795 311.499C99.6531 308.952 101.904 306.832 102.575 304.285C103.245 301.738 102.575 291.548 102.575 291.548C102.575 291.548 100.563 288.582 101.233 287.518C101.904 286.454 118.442 287.518 118.442 287.518C118.349 288.815 117.885 290.064 117.1 291.129C117.1 291.129 116.65 303.011 117.321 304.285C117.992 305.559 128.272 316.385 129.834 321.898C131.396 327.411 123.66 361.574 123.66 361.574H98.9916Z" fill="#F5F5F5"/>
<path d="M98.9916 361.574C99.1385 361.566 99.2857 361.566 99.4326 361.574H100.691H105.542L123.66 361.495L123.513 361.608C124.432 357.247 125.498 352.396 126.545 347.005C127.593 341.614 128.677 335.743 129.439 329.444C129.614 327.865 129.779 326.26 129.816 324.637C129.856 323.832 129.804 323.024 129.66 322.23C129.437 321.437 129.129 320.668 128.741 319.935C127.031 316.914 125.035 314.047 122.778 311.369C121.648 309.973 120.481 308.586 119.296 307.181C118.699 306.483 118.102 305.785 117.523 305.053C117.371 304.862 117.229 304.664 117.1 304.459C117.005 304.223 116.94 303.977 116.907 303.727C116.834 303.264 116.806 302.811 116.779 302.348C116.613 298.676 116.724 294.95 116.843 291.182V291.121V291.06C117.033 290.779 117.205 290.488 117.358 290.187C117.797 289.372 118.065 288.483 118.148 287.57L118.368 287.797C114.592 287.57 110.871 287.396 107.224 287.335C105.432 287.273 103.639 287.34 101.858 287.535C101.695 287.564 101.538 287.614 101.39 287.684C101.304 287.827 101.265 287.991 101.279 288.155C101.307 288.549 101.397 288.937 101.546 289.306C101.861 290.067 102.251 290.797 102.713 291.487V291.54V291.592C102.878 294.305 102.988 296.974 102.997 299.6C103.019 300.908 102.967 302.215 102.841 303.517C102.672 304.818 102.16 306.057 101.353 307.12C100.587 308.143 99.7356 309.105 98.8078 309.999C97.8891 310.871 96.9703 311.744 96.0516 312.572C95.1164 313.346 94.2356 314.176 93.4147 315.059C92.6862 315.919 92.0693 316.859 91.5772 317.859C90.5969 319.849 89.9194 321.961 89.5651 324.131C89.4504 325.167 89.4504 326.21 89.5651 327.246C89.6386 328.275 89.7856 329.278 89.9418 330.273C90.6033 334.207 91.5588 337.801 92.45 341.055C94.2875 347.546 96.0148 352.658 97.2092 356.165C97.8064 357.91 98.275 359.253 98.5965 360.187C98.7527 360.631 98.8722 360.972 98.9548 361.225C99.0375 361.478 99.0651 361.582 99.0651 361.582L98.9181 361.233C98.8262 360.989 98.6884 360.649 98.523 360.213C98.1739 359.34 97.6778 357.962 97.053 356.217C95.8127 352.728 94.0395 347.616 92.1652 341.125C91.1132 337.569 90.2546 333.965 89.5927 330.325C89.4365 329.331 89.2803 328.319 89.1976 327.272C89.0785 326.211 89.0785 325.14 89.1976 324.079C89.543 321.869 90.2238 319.718 91.2189 317.693C91.7586 316.638 92.4345 315.65 93.231 314.753C94.0663 313.858 94.9592 313.014 95.9046 312.223C96.8233 311.421 97.7421 310.549 98.6608 309.667C99.5742 308.791 100.407 307.843 101.151 306.832C101.922 305.826 102.409 304.648 102.566 303.412C102.684 302.128 102.733 300.838 102.713 299.548C102.713 296.931 102.575 294.314 102.409 291.566V291.67C101.93 290.954 101.527 290.194 101.206 289.402C101.029 288.988 100.926 288.549 100.903 288.102C100.884 287.841 100.955 287.581 101.105 287.361C101.316 287.185 101.579 287.075 101.858 287.047C103.668 286.838 105.493 286.768 107.316 286.837C110.991 286.89 114.666 287.064 118.488 287.291H118.727V287.5C118.657 288.497 118.369 289.469 117.881 290.353C117.717 290.653 117.536 290.944 117.339 291.225L117.385 291.112C117.266 294.872 117.155 298.597 117.321 302.235C117.337 302.681 117.377 303.127 117.44 303.57C117.466 303.775 117.515 303.977 117.587 304.171C117.703 304.354 117.832 304.529 117.973 304.695C118.534 305.419 119.14 306.117 119.728 306.815C120.913 308.219 122.08 309.606 123.21 311.011C125.487 313.713 127.495 316.61 129.21 319.665C129.599 320.427 129.907 321.225 130.128 322.046C130.275 322.876 130.328 323.718 130.285 324.559C130.285 326.208 130.082 327.821 129.899 329.4C129.118 335.725 127.988 341.614 126.94 346.988C125.893 352.361 124.818 357.264 123.844 361.582V361.704H123.715L105.524 361.635H100.7H99.4602L98.9916 361.574Z" fill="#E0E0E0"/>
<path d="M121.52 358.503C124.354 348.574 126.233 338.422 127.133 328.17C127.225 327.001 127.225 325.649 126.297 324.873C125.158 323.931 123.412 324.437 121.97 324.873C117.729 326.146 113.218 326.374 108.859 325.536C104.624 324.707 100.425 322.866 96.1526 323.529C95.6185 323.58 95.1 323.73 94.6271 323.971C94.1541 324.212 93.7359 324.539 93.3963 324.934C92.6981 325.911 92.8635 327.202 93.0656 328.362C94.7377 338.334 98.1647 349.805 100.949 358.503H121.52Z" fill="#E0E0E0"/>
<path d="M124.331 326.094C124.102 326.417 123.831 326.71 123.522 326.967C122.728 327.661 121.877 328.294 120.978 328.86C118.006 330.796 114.59 332.028 111.015 332.455C107.439 332.881 103.808 332.489 100.425 331.311C99.4081 330.961 98.422 330.535 97.4756 330.037C97.1161 329.871 96.7797 329.663 96.4742 329.418C96.5201 329.339 97.9626 330.194 100.535 331.006C103.877 332.077 107.432 332.418 110.932 332.001C114.432 331.584 117.788 330.42 120.748 328.598C123.091 327.202 124.267 326.033 124.331 326.094Z" fill="white"/>
<path d="M310.683 164.984C307.822 165.287 304.935 165.287 302.074 164.984C304.935 164.682 307.822 164.682 310.683 164.984Z" fill="#FAFAFA"/>
<path d="M437.95 362.69C437.95 362.821 344.999 362.926 230.365 362.926C115.731 362.926 22.7253 362.821 22.7253 362.69C22.7253 362.559 115.649 362.446 230.31 362.446C344.971 362.446 437.95 362.568 437.95 362.69Z" fill="#263238"/>
<path d="M354.875 313.445C359.35 310.391 363.907 307.295 369.089 305.506C374.27 303.718 380.261 303.369 385.167 305.768C389.274 307.774 392.232 311.526 393.932 315.608C396.029 320.678 396.383 326.248 394.943 331.52C394.162 334.364 392.609 337.304 389.761 338.456C386.913 339.607 383.633 338.613 380.803 337.409C371.516 333.447 363.472 327.264 357.457 319.464C358.062 319.005 358.796 318.726 359.567 318.661C360.339 318.596 361.113 318.748 361.794 319.098C363.139 319.818 364.362 320.727 365.423 321.793C369.015 324.884 373.349 327.094 378.047 328.231C381.52 329.104 386.196 328.711 387.363 325.492C388.125 323.39 386.913 321.13 385.737 319.22C384.395 317.013 382.861 314.649 380.343 313.768C378.451 313.113 376.365 313.427 374.381 313.768L352.716 317.301L354.058 316.926" fill="#455A64"/>
<path d="M300.788 35.9955C286.501 32.2094 265.333 37.4785 257.248 49.2817C249.163 61.0849 252.728 78.6021 252.094 92.6648C251.46 106.727 252.094 121.017 248.501 134.687C246.241 143.411 241.914 152.134 233.957 156.976C224.862 162.472 211.227 163.013 206.918 172.4C203.326 180.251 208.903 189.847 205.274 197.698C203.675 201.188 200.432 203.805 199.035 207.338C197.106 212.241 199.219 217.946 203.014 221.741C206.808 225.536 211.999 227.76 217.172 229.592C232.93 235.073 249.68 237.52 266.445 236.789C278.637 236.249 291.72 233.509 299.713 224.759C305.988 217.885 308.055 208.464 309.195 199.461C316.196 143.777 317.464 82.5627 300.788 36.0827" fill="#263238"/>
<path d="M221.122 204.974C221.242 204.913 220.59 203.866 219.937 201.781C219.084 198.833 218.902 195.746 219.404 192.726C220.166 188.248 221.926 183.977 224.568 180.199C227.499 175.907 231.743 171.876 236.401 167.907C241.059 163.938 245.699 160.265 249.439 156.435C252.811 153.084 255.619 149.259 257.763 145.094C259.195 142.275 260.085 139.235 260.39 136.118C260.454 135.273 260.454 134.424 260.39 133.579C260.39 132.995 260.317 132.707 260.271 132.707C259.995 132.637 260.73 137.766 257.037 144.78C254.836 148.811 252.022 152.512 248.685 155.763C245.01 159.506 240.352 163.126 235.657 167.104C230.962 171.082 226.681 175.209 223.713 179.658C221.028 183.565 219.29 187.99 218.623 192.612C218.182 195.73 218.496 198.901 219.542 201.886C219.835 202.689 220.204 203.466 220.645 204.206C220.764 204.483 220.925 204.741 221.122 204.974Z" fill="#455A64"/>
<path d="M257.055 304.704L252.278 361.713L395.815 362.385L356.796 310.287L257.055 304.704Z" fill="#263238"/>
<path d="M143.579 167.584C143.983 167.916 135.172 212.555 130.716 234.905C129.972 238.644 130.347 242.507 131.799 246.053C133.251 249.6 135.722 252.689 138.93 254.97C142.245 257.323 146.207 258.714 150.338 258.974C154.468 259.234 158.589 258.353 162.202 256.435L221.968 226.905L203.666 190.519L165.997 210.819L168.477 172.967L143.579 167.584Z" fill="#FFBE9D"/>
<path d="M163.985 132.087C163.562 130.491 161.44 129.767 159.749 130.168C158.101 130.716 156.631 131.664 155.486 132.916L150.653 135.699C149.742 136.274 148.991 137.051 148.466 137.962C147.941 138.874 147.657 139.894 147.64 140.933C147.616 143.007 147.954 145.071 148.641 147.04C149.147 148.784 149.863 150.765 151.637 151.402C153.612 152.1 155.799 150.651 156.726 148.854C157.654 147.057 157.746 145.007 158.233 143.062C158.82 140.728 159.982 138.561 161.623 136.737C162.845 135.367 164.453 133.832 163.985 132.087Z" fill="#EB996E"/>
<path d="M123.835 133.884C123.685 133.439 123.654 132.966 123.742 132.507C123.831 132.048 124.038 131.616 124.344 131.251C124.65 130.885 125.046 130.597 125.497 130.411C125.948 130.225 126.441 130.148 126.931 130.186C136.743 130.953 160.052 134.05 173.88 137.827C193.486 143.184 206.395 146.647 206.395 146.647L248.033 145.775C248.033 145.775 243.035 159.401 227.168 159.471C215.16 159.523 202.563 152.195 202.563 152.195C202.563 152.195 149.202 134.94 126.793 135.873C126.139 135.901 125.493 135.721 124.958 135.363C124.422 135.005 124.027 134.488 123.835 133.893V133.884Z" fill="#455A64"/>
<path d="M240.251 145.888C240.765 147.275 239.066 148.505 237.55 148.767C236.034 149.029 234.297 148.959 233.204 149.988C232.816 150.431 232.533 150.947 232.375 151.503C232.216 152.058 232.186 152.64 232.285 153.207C232.502 154.338 232.646 155.48 232.717 156.627C232.741 157.407 232.456 158.166 231.918 158.756C230.824 159.811 228.812 159.454 227.756 158.372C226.788 157.196 226.261 155.747 226.258 154.254C226.245 153.197 226.081 152.147 225.771 151.131C225.608 150.623 225.305 150.166 224.893 149.807C224.481 149.448 223.975 149.201 223.428 149.09C222.115 148.933 220.957 149.875 219.698 150.294C219.039 150.471 218.346 150.511 217.669 150.41C216.991 150.309 216.345 150.07 215.774 149.709C215.203 149.349 214.721 148.875 214.361 148.321C214.002 147.767 213.772 147.145 213.69 146.499L240.251 145.888Z" fill="#9E9169"/>
<path d="M138.838 131.712C138.185 132.057 137.51 132.363 136.817 132.628C133.456 133.924 129.818 134.439 126.205 134.129C125.461 134.071 124.721 133.966 123.991 133.815C123.991 133.815 124.202 133.815 124.579 133.893C124.956 133.972 125.498 134.006 126.205 134.059C128.001 134.196 129.807 134.138 131.589 133.884C133.369 133.63 135.113 133.188 136.789 132.567C137.433 132.323 137.947 132.113 138.296 131.948L138.838 131.712Z" fill="#263238"/>
<path d="M157.103 134.216H156.929L156.432 134.164C156.001 134.111 155.376 134.059 154.595 134.015C152.574 133.901 150.547 134 148.55 134.312C146.554 134.635 144.601 135.161 142.725 135.882C142.008 136.17 141.429 136.414 141.043 136.597L140.593 136.798L140.428 136.859C140.428 136.859 140.474 136.859 140.575 136.763L141.006 136.528C141.392 136.327 141.925 136.065 142.679 135.769C144.55 135.004 146.512 134.456 148.522 134.137C150.532 133.824 152.573 133.739 154.604 133.884C155.385 133.945 156.01 134.024 156.442 134.094L156.938 134.181L157.103 134.216Z" fill="#263238"/>
<path d="M170.756 140.785L168.836 140.244L166.594 139.598C166.108 139.495 165.666 139.255 165.326 138.909C165.241 138.806 165.184 138.684 165.16 138.555C165.136 138.425 165.146 138.293 165.188 138.168C165.238 138.038 165.32 137.921 165.427 137.827C165.534 137.733 165.663 137.664 165.804 137.627C166.403 137.454 167.042 137.454 167.641 137.627C168.257 137.74 168.9 137.871 169.552 138.046C170.942 138.417 172.292 138.911 173.586 139.52C174.266 139.843 174.955 140.2 175.625 140.602C175.982 140.783 176.295 141.032 176.544 141.334C176.608 141.419 176.648 141.518 176.661 141.622C176.674 141.726 176.659 141.831 176.618 141.928C176.52 142.111 176.358 142.257 176.158 142.338C174.547 142.927 172.803 143.11 171.096 142.87C167.559 142.442 164.573 140.828 161.908 139.502C159.587 138.197 157.068 137.241 154.439 136.667C152.658 136.311 150.812 136.377 149.064 136.859C148.592 137 148.134 137.181 147.695 137.4C147.401 137.557 147.245 137.627 147.245 137.627L147.622 137.374C148.056 137.148 148.511 136.961 148.981 136.816C150.738 136.317 152.598 136.242 154.393 136.597C157.03 137.164 159.559 138.114 161.89 139.415C164.564 140.741 167.549 142.346 171.078 142.774C172.766 143.01 174.49 142.829 176.085 142.25C176.269 142.183 176.42 142.052 176.507 141.884C176.54 141.799 176.551 141.709 176.54 141.619C176.529 141.53 176.495 141.444 176.443 141.369C176.191 141.079 175.878 140.841 175.524 140.671C174.869 140.276 174.191 139.915 173.494 139.59C172.204 138.98 170.856 138.487 169.47 138.115C168.827 137.941 168.183 137.801 167.568 137.679C166.995 137.522 166.386 137.522 165.813 137.679C165.683 137.718 165.564 137.783 165.464 137.87C165.364 137.958 165.285 138.065 165.234 138.185C165.193 138.301 165.182 138.424 165.203 138.544C165.224 138.664 165.276 138.778 165.354 138.874C165.686 139.214 166.118 139.451 166.594 139.555L168.836 140.209L170.756 140.785Z" fill="#263238"/>
<path d="M180.44 139.991C180.605 140.26 180.718 140.556 180.77 140.863C180.92 141.576 180.827 142.316 180.504 142.974C180.163 143.625 179.617 144.159 178.942 144.501C178.657 144.648 178.345 144.742 178.023 144.78C178.314 144.689 178.597 144.575 178.869 144.44C179.534 144.105 180.069 143.578 180.398 142.935C180.727 142.292 180.831 141.567 180.697 140.863C180.636 140.567 180.55 140.275 180.44 139.991Z" fill="#263238"/>
<path d="M197.345 144.187C197.345 144.187 196.426 144.187 194.993 144.1C193.56 144.013 191.538 143.812 189.315 143.786C187.434 143.721 185.559 144.018 183.802 144.658C183.485 144.768 183.178 144.902 182.884 145.059C182.662 145.16 182.452 145.283 182.259 145.426L181.735 145.757L182.231 145.4C182.423 145.249 182.633 145.12 182.856 145.016C183.149 144.852 183.457 144.712 183.775 144.597C185.553 143.941 187.455 143.644 189.361 143.725C191.593 143.725 193.587 143.978 195.039 144.074C195.765 144.126 196.353 144.17 196.757 144.187H197.345Z" fill="#263238"/>
<path d="M214.976 157.351C214.976 157.351 214.645 157.081 214.057 156.575C213.763 156.322 213.396 156.016 212.955 155.702C212.514 155.388 212.036 154.97 211.448 154.577C210.12 153.622 208.73 152.748 207.286 151.96C203.751 150.044 199.927 148.655 195.948 147.842C194.328 147.502 192.686 147.263 191.033 147.127C190.326 147.04 189.682 147.031 189.122 147.005C188.562 146.979 188.075 147.005 187.68 147.005H186.448H187.68C188.075 147.005 188.598 147.005 189.122 147.005C189.646 147.005 190.326 147.005 191.033 147.11C192.691 147.243 194.339 147.476 195.967 147.807C197.957 148.215 199.915 148.752 201.828 149.413C203.724 150.12 205.566 150.95 207.341 151.899C208.786 152.686 210.176 153.56 211.503 154.516C212.082 154.9 212.56 155.31 213.001 155.65C213.442 155.99 213.8 156.287 214.085 156.522C214.691 157.063 214.976 157.351 214.976 157.351Z" fill="#263238"/>
<path d="M227.021 157.648C226.729 157.798 226.421 157.918 226.102 158.005C225.248 158.252 224.356 158.355 223.465 158.311C222.142 158.232 220.848 157.912 219.652 157.369C218.202 156.685 216.864 155.804 215.683 154.752C214.406 153.652 213.295 152.518 212.266 151.506C211.365 150.584 210.411 149.71 209.408 148.889C208.732 148.344 208.014 147.848 207.258 147.406C206.992 147.258 206.781 147.136 206.634 147.066L206.422 146.97C207.519 147.472 208.541 148.109 209.463 148.863C210.468 149.674 211.427 150.533 212.339 151.436C213.377 152.448 214.489 153.583 215.757 154.673C216.93 155.722 218.258 156.604 219.698 157.29C220.884 157.834 222.169 158.154 223.484 158.232C224.366 158.288 225.253 158.197 226.102 157.962C226.335 157.9 226.562 157.821 226.782 157.726L227.021 157.648Z" fill="#263238"/>
<path d="M242.796 153.452H242.484C242.272 153.452 241.978 153.452 241.611 153.452C240.651 153.453 239.694 153.547 238.753 153.731C237.804 153.926 236.88 154.218 235.997 154.603C235.666 154.743 235.391 154.874 235.216 154.97C235.123 155.023 235.025 155.066 234.922 155.1C235.256 154.889 235.606 154.703 235.97 154.542C237.715 153.742 239.637 153.35 241.574 153.399C241.982 153.391 242.39 153.408 242.796 153.452Z" fill="#263238"/>
<path d="M128.144 156.941L127.703 148.784C127.654 147.906 127.909 147.036 128.429 146.307L128.484 146.228C129.964 144.143 131.893 142.38 134.143 141.055L152.656 130.159C152.929 129.998 153.239 129.902 153.56 129.881C153.881 129.859 154.202 129.912 154.496 130.035C154.79 130.158 155.049 130.347 155.248 130.586C155.448 130.825 155.583 131.107 155.642 131.407C155.872 132.846 155.201 136.126 153.86 137.435C151.48 139.492 148.874 141.299 146.087 142.826L164.655 139.406C165.088 140.532 165.08 141.768 164.633 142.889C164.186 144.01 163.33 144.941 162.221 145.513L169.856 143.978C169.856 143.978 172.355 147.354 168.937 149.578C165.519 151.803 159.446 153.731 159.446 153.731C159.446 153.731 168.918 157.526 168.698 160.553C168.477 163.58 168.349 173.281 168.349 173.281L142.899 171.536L128.144 156.941Z" fill="#FFBE9D"/>
<path d="M146.758 142.294L146.583 142.39L146.05 142.643C145.591 142.87 144.92 143.184 144.112 143.594C143.303 144.004 142.385 144.562 141.356 145.199C140.327 145.836 139.178 146.49 138.085 147.293C137.55 147.682 137.121 148.188 136.835 148.767C136.59 149.318 136.477 149.914 136.505 150.512C136.579 151.526 136.783 152.528 137.111 153.495C137.322 154.161 137.466 154.845 137.543 155.537C137.574 155.789 137.574 156.044 137.543 156.296C137.543 156.296 137.543 156.025 137.478 155.537C137.381 154.856 137.221 154.185 137.001 153.53C136.647 152.555 136.428 151.54 136.348 150.512C136.315 149.894 136.428 149.277 136.679 148.706C136.979 148.103 137.422 147.574 137.975 147.162C138.519 146.763 139.087 146.393 139.674 146.054L141.282 145.068C142.302 144.44 143.239 143.89 144.038 143.489C144.838 143.088 145.536 142.791 146.014 142.617L146.556 142.39L146.758 142.294Z" fill="#EB996E"/>
<path d="M148.485 160.605C148.485 160.605 148.403 160.518 148.256 160.335L147.622 159.558L146.611 158.337C146.151 157.801 145.759 157.216 145.444 156.592C145.097 155.737 145.022 154.804 145.229 153.909C145.437 153.014 145.917 152.196 146.611 151.559C147.459 150.856 148.425 150.293 149.468 149.892C150.516 149.421 151.618 148.968 152.757 148.523C156.664 147.04 160.677 145.824 164.766 144.885C166.328 144.51 167.605 144.248 168.487 144.074L169.497 143.882L169.856 143.821C169.741 143.859 169.625 143.891 169.506 143.917L168.496 144.143C167.623 144.344 166.355 144.623 164.821 145.016C160.759 145.995 156.769 147.224 152.877 148.697C151.747 149.142 150.644 149.57 149.597 150.058C148.569 150.452 147.617 151.003 146.776 151.69C146.104 152.303 145.636 153.091 145.43 153.954C145.225 154.818 145.29 155.72 145.619 156.549C145.921 157.169 146.297 157.754 146.74 158.293C147.107 158.756 147.438 159.166 147.732 159.532C148.026 159.899 148.2 160.143 148.338 160.335C148.476 160.527 148.485 160.605 148.485 160.605Z" fill="#EB996E"/>
<path d="M168.183 149.77C168.051 149.864 167.909 149.945 167.761 150.015L166.576 150.608C165.574 151.105 164.178 151.768 162.588 152.422C161.233 152.98 159.847 153.466 158.435 153.879C157.893 154.036 157.452 154.15 157.14 154.219C156.984 154.267 156.824 154.302 156.662 154.324C156.807 154.25 156.961 154.194 157.122 154.158L158.389 153.757C159.464 153.408 160.925 152.885 162.515 152.257C164.104 151.628 165.501 150.957 166.52 150.512L167.724 149.971C167.87 149.89 168.024 149.822 168.183 149.77Z" fill="#EB996E"/>
<path d="M222.804 110.862C222.804 110.862 222.491 111.264 222.078 112.075C221.509 113.23 221.22 114.491 221.233 115.765C221.244 117.657 221.949 119.486 223.226 120.938C224.019 121.762 224.856 122.545 225.735 123.285C226.698 124.09 227.461 125.088 227.967 126.207C228.388 127.373 228.349 128.644 227.857 129.784C227.402 130.83 226.783 131.803 226.019 132.672C225.321 133.544 224.577 134.251 223.906 134.949C223.281 135.598 222.71 136.292 222.197 137.025C221.622 137.705 221.211 138.496 220.993 139.343C220.776 140.191 220.757 141.073 220.939 141.928C220.939 141.928 220.939 141.806 220.847 141.579C220.761 141.236 220.724 140.884 220.736 140.532C220.826 139.243 221.294 138.004 222.087 136.955C222.596 136.214 223.164 135.511 223.787 134.853C224.457 134.137 225.192 133.405 225.882 132.567C226.625 131.709 227.229 130.751 227.673 129.723C228.152 128.61 228.188 127.37 227.774 126.234C227.283 125.138 226.535 124.162 225.588 123.381C224.711 122.632 223.877 121.84 223.089 121.008C221.786 119.529 221.079 117.658 221.095 115.73C221.095 114.438 221.409 113.163 222.014 112.005C222.231 111.597 222.496 111.214 222.804 110.862Z" fill="#263238"/>
<path d="M231.229 110.444C231.229 110.444 230.916 110.854 230.503 111.665C229.937 112.817 229.652 114.075 229.667 115.346C229.668 117.243 230.374 119.078 231.661 120.528C232.377 121.331 233.278 122.064 234.16 122.875C235.128 123.672 235.892 124.668 236.392 125.789C236.811 126.957 236.775 128.229 236.291 129.374C235.832 130.418 235.213 131.391 234.454 132.262C233.746 133.134 233.002 133.832 232.34 134.539C231.715 135.187 231.141 135.878 230.622 136.606C229.844 137.632 229.368 138.837 229.244 140.096C229.232 140.561 229.275 141.026 229.373 141.483C229.331 141.369 229.297 141.252 229.272 141.134C229.19 140.794 229.156 140.444 229.171 140.096C229.259 138.806 229.724 137.564 230.512 136.51C231.027 135.773 231.598 135.073 232.221 134.417C232.883 133.701 233.618 132.968 234.316 132.131C235.056 131.273 235.657 130.314 236.098 129.287C236.578 128.175 236.617 126.935 236.208 125.797C235.712 124.707 234.965 123.735 234.022 122.954C233.103 122.142 232.249 121.409 231.514 120.581C230.21 119.098 229.504 117.225 229.52 115.294C229.525 114.005 229.839 112.734 230.439 111.578C230.661 111.175 230.926 110.796 231.229 110.444Z" fill="#263238"/>
<path d="M165.225 238.988C165.17 238.988 165.436 232.384 165.822 224.245C166.208 216.105 166.557 209.51 166.603 209.519C166.649 209.528 166.392 216.114 166.015 224.253C165.638 232.393 165.271 238.988 165.225 238.988Z" fill="#EB996E"/>
<path d="M149.248 176.744C147.494 175.143 145.832 173.454 144.268 171.684C146.022 173.285 147.684 174.974 149.248 176.744Z" fill="#EB996E"/>
<path d="M256.504 302.837L249.025 362.385H353.424L336.032 320.031L359.965 314.64C359.965 314.64 358.358 310.374 356.814 310.278C355.271 310.182 256.504 302.837 256.504 302.837Z" fill="#455A64"/>
<path d="M202.903 189.001C202.903 189.001 243.393 164.103 254.042 160.71C260.592 158.625 280.263 158.293 280.263 158.293L243.393 218.121L222.436 227.804L202.903 189.001Z" fill="#9E9169"/>
<path d="M405.867 230.84C393.5 202.488 373.49 170.454 367.564 164.967C361.638 159.48 325.301 155.048 325.301 155.048L277.654 159.96L239.452 209.685L256.182 287.23L255.613 288.259C254.362 290.547 253.787 293.113 253.949 295.686C254.111 298.259 255.003 300.742 256.531 302.872L356.823 310.322L356.952 236.894L405.867 230.84Z" fill="#9E9169"/>
<path d="M343.106 272.4C342.963 272.622 342.8 272.832 342.619 273.028C342.27 273.42 341.802 274.031 341.103 274.773C339.194 276.844 337.12 278.775 334.902 280.548C327.558 286.446 318.847 290.609 309.482 292.695C300.118 294.782 290.366 294.732 281.026 292.551C278.206 291.899 275.442 291.047 272.757 290.004C271.838 289.646 271.085 289.298 270.588 289.132C270.334 289.031 270.088 288.912 269.853 288.774C270.12 288.847 270.381 288.938 270.634 289.045C271.14 289.228 271.856 289.55 272.821 289.873C283.091 293.659 294.24 294.771 305.114 293.093C315.989 291.415 326.193 287.009 334.672 280.33C336.901 278.588 339.001 276.702 340.956 274.685C341.673 273.987 342.16 273.394 342.537 273.019C342.71 272.8 342.901 272.593 343.106 272.4Z" fill="#263238"/>
<path d="M356.924 234.129C356.84 233.899 356.779 233.663 356.741 233.422L356.3 231.398C355.923 229.584 355.381 227.036 354.756 223.922C353.497 217.562 351.77 208.847 349.868 199.225C349.629 198.021 349.4 196.826 349.17 195.648C348.94 194.471 348.655 193.319 348.527 192.159C348.21 189.939 348.124 187.695 348.27 185.459C348.42 183.44 348.743 181.436 349.234 179.466C349.697 177.758 350.29 176.085 351.007 174.458C352.05 172.106 353.399 169.888 355.022 167.855C355.574 167.113 356.088 166.607 356.401 166.241C356.549 166.045 356.726 165.868 356.924 165.717C356.924 165.717 356.777 165.918 356.474 166.302C356.171 166.686 355.693 167.174 355.179 167.959C353.62 170.013 352.324 172.236 351.32 174.581C350.626 176.196 350.058 177.858 349.62 179.553C349.145 181.504 348.838 183.487 348.701 185.485C348.57 187.693 348.666 189.908 348.986 192.098C349.115 193.249 349.418 194.383 349.629 195.587C349.841 196.791 350.089 197.951 350.328 199.164C352.165 208.76 353.856 217.484 355.078 223.887C355.666 227.019 356.134 229.575 356.465 231.389L356.823 233.431C356.877 233.66 356.91 233.894 356.924 234.129Z" fill="#263238"/>
<path d="M244.376 232.462C244.223 232.048 244.11 231.622 244.036 231.189C243.853 230.273 243.604 229.086 243.301 227.699C242.704 224.733 241.905 220.616 241.05 216.071C240.196 211.526 239.452 207.399 238.937 204.416C238.698 202.976 238.496 201.799 238.349 200.874C238.261 200.442 238.209 200.005 238.193 199.565C238.347 199.979 238.461 200.405 238.533 200.839C238.717 201.711 238.965 202.933 239.268 204.328C239.865 207.303 240.664 211.421 241.519 215.966C242.373 220.511 243.117 224.629 243.632 227.621C243.871 229.051 244.073 230.238 244.22 231.163C244.308 231.591 244.36 232.026 244.376 232.462Z" fill="#263238"/>
<path d="M360.37 191.714C360.636 190.025 361.057 188.361 361.628 186.741C362.052 185.082 362.63 183.462 363.356 181.9C363.084 183.589 362.659 185.252 362.088 186.872C361.671 188.532 361.096 190.153 360.37 191.714Z" fill="#FAFAFA"/>
<path d="M365.744 209.214C364.332 208.611 362.99 207.872 361.739 207.007C360.401 206.254 359.145 205.377 357.99 204.39C360.74 205.738 363.338 207.348 365.744 209.196V209.214Z" fill="#FAFAFA"/>
<path d="M375.888 202.453C375.673 200.945 375.71 199.414 375.998 197.916C376.128 196.4 376.503 194.911 377.109 193.502C377.247 193.502 376.806 195.509 376.476 197.978C376.145 200.446 376.025 202.453 375.888 202.453Z" fill="#FAFAFA"/>
<path d="M377.918 219.377C377.29 218.055 376.75 216.698 376.301 215.312C375.692 213.978 375.168 212.612 374.73 211.22C375.606 212.428 376.284 213.754 376.742 215.155C377.35 216.5 377.746 217.922 377.918 219.377Z" fill="#FAFAFA"/>
<path d="M370.053 229.845C367.545 228.068 365.231 226.058 363.144 223.843C365.658 225.614 367.973 227.625 370.053 229.845Z" fill="#FAFAFA"/>
<path d="M394.134 217.632C394.235 217.728 392.793 219.246 391.378 221.357C389.963 223.468 389.026 225.326 388.897 225.274C389.307 223.772 390.011 222.358 390.974 221.104C391.794 219.772 392.865 218.595 394.134 217.632Z" fill="#FAFAFA"/>
<path d="M367.876 174.703C366.883 174.159 365.976 173.483 365.184 172.696C364.281 172.022 363.48 171.232 362.804 170.35C363.796 170.903 364.705 171.581 365.506 172.365C366.406 173.036 367.203 173.823 367.876 174.703Z" fill="#FAFAFA"/>
<path d="M338.255 175.383C336.045 176.967 333.654 178.307 331.126 179.379C332.177 178.524 333.331 177.79 334.562 177.189C335.716 176.455 336.955 175.849 338.255 175.383Z" fill="#FAFAFA"/>
<path d="M333.073 200.01C332.102 199.098 331.244 198.082 330.519 196.983C329.665 195.972 328.94 194.868 328.36 193.694C330.188 195.616 331.77 197.736 333.073 200.01Z" fill="#FAFAFA"/>
<path d="M344.291 208.036C343.237 210.714 341.534 213.12 339.321 215.059C339.22 214.963 340.488 213.506 341.847 211.569C343.207 209.632 344.163 207.966 344.291 208.036Z" fill="#FAFAFA"/>
<path d="M317.032 209.833C316.894 209.877 316.113 207.923 314.854 205.681C313.596 203.439 312.3 201.746 312.41 201.659C314.656 203.963 316.239 206.779 317.004 209.833H317.032Z" fill="#FAFAFA"/>
<path d="M322.719 226.583C323.228 225.157 323.887 223.783 324.685 222.483C325.334 221.108 326.132 219.801 327.065 218.583C326.556 220.01 325.9 221.386 325.108 222.692C324.452 224.062 323.652 225.366 322.719 226.583Z" fill="#FAFAFA"/>
<path d="M341.746 239.145C341.212 237.596 340.824 236.005 340.589 234.39C340.206 232.806 339.979 231.191 339.909 229.566C340.446 231.111 340.833 232.7 341.066 234.312C341.45 235.899 341.677 237.517 341.746 239.145Z" fill="#FAFAFA"/>
<path d="M307.192 229.941C306.015 229.042 304.907 228.066 303.875 227.019C302.731 226.079 301.65 225.071 300.641 224C301.96 224.727 303.161 225.632 304.206 226.687C305.357 227.634 306.362 228.729 307.192 229.941Z" fill="#FAFAFA"/>
<path d="M291.867 205.689C289.8 207.856 287.499 209.812 285.004 211.526C287.071 209.358 289.371 207.402 291.867 205.689Z" fill="#FAFAFA"/>
<path d="M285.84 198.623C284.82 197.552 283.921 196.382 283.157 195.134C282.265 193.954 281.501 192.692 280.879 191.365C282.796 193.625 284.459 196.069 285.84 198.658V198.623Z" fill="#FAFAFA"/>
<path d="M262.467 210.801C261.232 209.492 260.116 208.085 259.131 206.597C258.02 205.197 257.04 203.709 256.201 202.148C257.435 203.452 258.548 204.856 259.527 206.344C260.644 207.744 261.628 209.236 262.467 210.801Z" fill="#FAFAFA"/>
<path d="M269.385 225.361C269.385 225.492 266.371 225.536 262.669 225.719C258.966 225.902 255.971 226.129 255.953 225.998C256.581 225.807 257.232 225.69 257.891 225.649C259.104 225.501 260.785 225.353 262.641 225.265C264.497 225.178 266.188 225.169 267.41 225.196C268.073 225.17 268.737 225.225 269.385 225.361Z" fill="#FAFAFA"/>
<path d="M271.085 183.13C271.213 183.13 270.689 185.319 270.212 188.006C269.734 190.693 269.477 192.9 269.339 192.892C269.291 189.564 269.883 186.256 271.085 183.13Z" fill="#FAFAFA"/>
<path d="M261.777 170.332C262.813 168.77 263.981 167.291 265.269 165.909C266.433 164.43 267.724 163.044 269.128 161.765C268.092 163.327 266.924 164.806 265.636 166.188C264.472 167.668 263.181 169.054 261.777 170.332Z" fill="#FAFAFA"/>
<path d="M252.443 182.266C252.342 182.353 250.174 180.26 247.307 177.904C244.44 175.549 241.997 173.717 242.079 173.612C242.698 173.88 243.276 174.227 243.797 174.642C244.817 175.34 246.186 176.386 247.629 177.564C249.071 178.742 250.293 179.937 251.157 180.809C251.651 181.239 252.084 181.729 252.443 182.266Z" fill="#FAFAFA"/>
<path d="M236.907 186.419C236.971 186.541 234.242 187.928 231.22 190.109C228.197 192.29 226.047 194.401 225.937 194.305C226.3 193.755 226.742 193.256 227.25 192.822C228.394 191.711 229.623 190.682 230.926 189.742C232.233 188.803 233.611 187.957 235.051 187.212C235.626 186.865 236.251 186.598 236.907 186.419Z" fill="#FAFAFA"/>
<path d="M216.06 198.667C215.931 198.667 215.95 196.303 215.83 193.389C215.711 190.475 215.509 188.155 215.647 188.155C216.085 189.868 216.307 191.625 216.308 193.389C216.456 195.151 216.373 196.924 216.06 198.667Z" fill="#FAFAFA"/>
<path d="M231.431 211.578C228.473 209.57 225.706 207.319 223.162 204.852C224.682 205.795 226.112 206.864 227.434 208.045C228.879 209.103 230.217 210.285 231.431 211.578Z" fill="#FAFAFA"/>
<path d="M255.732 193.084C254.012 193.67 252.241 194.113 250.44 194.41C248.671 194.856 246.863 195.148 245.038 195.282C246.761 194.695 248.535 194.252 250.339 193.956C252.106 193.514 253.911 193.222 255.732 193.084Z" fill="#FAFAFA"/>
<path d="M303.388 199.068C302.566 198.573 301.834 197.954 301.22 197.236C300.486 196.619 299.865 195.891 299.382 195.081C300.203 195.582 300.935 196.203 301.551 196.922C302.282 197.538 302.903 198.263 303.388 199.068Z" fill="#FAFAFA"/>
<path d="M324.768 187.282C323.968 188.274 323.042 189.167 322.011 189.943C321.081 190.832 320.042 191.611 318.915 192.264C320.651 190.382 322.623 188.709 324.786 187.282H324.768Z" fill="#FAFAFA"/>
<path d="M343.051 192.089C342.922 192.089 343.455 190.083 343.97 187.614C344.484 185.145 344.65 183.112 344.787 183.121C344.921 184.653 344.804 186.195 344.438 187.692C344.216 189.217 343.748 190.7 343.051 192.089Z" fill="#FAFAFA"/>
<path d="M249.117 220.153C248.536 219.543 248.078 218.836 247.766 218.068C247.318 217.365 247.007 216.591 246.848 215.783C247.44 216.39 247.907 217.097 248.226 217.868C248.663 218.573 248.965 219.347 249.117 220.153Z" fill="#FAFAFA"/>
<path d="M282.036 221.375C281.449 220.475 280.994 219.504 280.686 218.487C280.226 217.52 279.917 216.494 279.767 215.442C280.356 216.34 280.807 217.312 281.108 218.33C281.573 219.296 281.885 220.322 282.036 221.375Z" fill="#FAFAFA"/>
<path d="M299.989 212.79C299.888 212.703 300.421 211.97 301.183 211.15C301.946 210.33 302.635 209.728 302.736 209.807C302.837 209.885 302.295 210.627 301.541 211.447C300.788 212.267 300.136 212.869 299.989 212.79Z" fill="#FAFAFA"/>
<path d="M263.101 267.427C262.176 266.219 261.48 264.867 261.043 263.432C260.462 262.042 260.151 260.564 260.124 259.07C260.262 259.07 260.684 260.989 261.52 263.283C262.356 265.578 263.229 267.357 263.101 267.427Z" fill="#FAFAFA"/>
<path d="M277.112 268.422C277.341 267.129 277.723 265.865 278.251 264.653C278.626 263.394 279.156 262.182 279.831 261.041C279.603 262.331 279.224 263.592 278.701 264.801C278.32 266.062 277.786 267.277 277.112 268.422Z" fill="#FAFAFA"/>
<path d="M273.023 283.54C272.14 282.435 271.388 281.242 270.781 279.981C270.026 278.785 269.41 277.516 268.944 276.194C269.822 277.303 270.571 278.5 271.176 279.762C271.929 280.957 272.548 282.223 273.023 283.54Z" fill="#FAFAFA"/>
<path d="M298.978 279.195C297.39 278.964 295.844 278.524 294.384 277.887C292.873 277.391 291.447 276.688 290.149 275.802C291.654 276.277 293.129 276.834 294.568 277.468C296.074 277.958 297.547 278.534 298.978 279.195Z" fill="#FAFAFA"/>
<path d="M290.581 270.227C290.516 270.114 292.143 269.111 293.98 267.68C295.818 266.249 297.196 264.95 297.297 265.063C295.552 267.298 293.242 269.08 290.581 270.245V270.227Z" fill="#FAFAFA"/>
<path d="M312.208 276.605C312.126 276.709 310.453 275.732 308.258 274.72C306.062 273.708 304.187 273.141 304.224 273.019C307.176 273.513 309.934 274.751 312.208 276.605Z" fill="#FAFAFA"/>
<path d="M316.82 284.805C316.729 284.709 317.987 283.488 319.375 281.839C320.762 280.19 321.736 278.759 321.855 278.829C321.372 280.043 320.656 281.161 319.742 282.127C318.954 283.186 317.963 284.094 316.82 284.805Z" fill="#FAFAFA"/>
<path d="M269.642 300.647C268.114 299.954 266.659 299.124 265.296 298.17C263.84 297.345 262.471 296.39 261.208 295.317C262.736 296.01 264.191 296.84 265.554 297.794C267.01 298.619 268.379 299.574 269.642 300.647Z" fill="#FAFAFA"/>
<path d="M287.218 296.529C287.273 296.652 285.38 297.445 283.24 298.771C281.099 300.098 279.565 301.389 279.464 301.319C281.504 299.041 284.198 297.377 287.218 296.529Z" fill="#FAFAFA"/>
<path d="M302.938 303.125C302.162 302.389 301.497 301.556 300.963 300.647C300.299 299.819 299.77 298.902 299.392 297.925C300.838 299.495 302.033 301.259 302.938 303.16V303.125Z" fill="#FAFAFA"/>
<path d="M321.883 297.184C321.938 297.306 320.156 298.108 318.134 299.356C316.113 300.603 314.597 301.799 314.459 301.703C315.399 300.602 316.546 299.677 317.84 298.972C319.056 298.138 320.428 297.531 321.883 297.184Z" fill="#FAFAFA"/>
<path d="M330.639 289.376C330.51 289.437 329.968 288.504 328.939 287.745C327.91 286.986 326.89 286.602 326.927 286.48C327.79 286.468 328.622 286.782 329.242 287.352C329.971 287.825 330.474 288.552 330.639 289.376Z" fill="#FAFAFA"/>
<path d="M340.561 298.361C339.599 299.085 338.543 299.689 337.419 300.159C336.363 300.754 335.234 301.223 334.056 301.554C335.015 300.826 336.072 300.222 337.199 299.757C338.25 299.154 339.381 298.685 340.561 298.361Z" fill="#FAFAFA"/>
<path d="M349.501 303.125C349.363 303.125 349.868 301.127 350.199 298.667C350.53 296.207 350.566 294.174 350.713 294.174C350.966 295.681 350.95 297.217 350.668 298.719C350.545 300.24 350.15 301.73 349.501 303.125Z" fill="#FAFAFA"/>
<path d="M348.086 287.98C348.003 288.094 346.147 286.898 343.602 285.948C341.057 284.997 338.852 284.657 338.871 284.517C340.562 284.527 342.233 284.871 343.777 285.529C345.381 286.045 346.85 286.881 348.086 287.98Z" fill="#FAFAFA"/>
<path d="M328.167 242.312C325.413 240.972 322.812 239.367 320.404 237.522C323.154 238.867 325.755 240.472 328.167 242.312Z" fill="#FAFAFA"/>
<g opacity="0.3">
<path d="M281.568 292.743C281.274 292.199 281.184 291.576 281.313 290.977C281.441 290.378 281.781 289.838 282.275 289.446C283.294 288.69 284.523 288.232 285.812 288.129C292.391 287.151 299.437 288.844 305.602 286.462C309.737 284.857 312.952 281.586 315.378 278.044C317.803 274.502 319.724 270.629 322.122 267.052C324.272 263.833 327.019 260.762 330.767 259.384C334.516 258.006 339.394 258.887 341.425 262.175C343.455 265.464 342.096 269.503 340.194 272.749C334.819 281.909 325.135 288.39 314.579 291.478C304.022 294.567 292.657 294.488 281.761 292.656" fill="black"/>
</g>
<path d="M411.848 265.761L401.594 231.023L359.387 236.205L364.33 254.629L301.202 238.639L287.273 256.191L383.1 299.155C387.492 300.933 392.352 301.396 397.029 300.483C401.706 299.57 405.978 297.323 409.275 294.043C415.155 288.146 414.448 273.516 411.848 265.761Z" fill="#FFBE9D"/>
<path d="M237.384 232.462C235.97 232.105 234.261 231.817 233.213 232.776C232.8 233.239 232.556 233.818 232.52 234.424C232.483 235.03 232.656 235.631 233.011 236.135C233.663 237.173 234.16 237.322 235.887 237.88L252.691 241.5L259.122 236.72L237.384 232.462Z" fill="#EB996E"/>
<path d="M289.836 257.028C269.302 252.257 250.247 245.949 229.961 242.285C228.95 242.102 227.811 241.849 227.278 241.003C226.552 239.851 227.489 238.29 228.785 237.766C230.138 237.369 231.578 237.324 232.956 237.636C243.811 239.069 254.844 238.715 265.572 236.589C272.527 235.202 279.353 233.099 286.373 232.227C293.392 231.355 295.285 234.844 301.202 238.595" fill="#FFBE9D"/>
<path d="M301.202 238.639C299.493 235.793 297.009 233.438 294.009 231.82C291.01 230.202 287.607 229.381 284.159 229.444C279.96 229.575 275.945 231.023 271.893 232.061C267.841 233.099 263.413 233.745 259.499 232.279C258.001 231.721 256.605 230.857 255.006 230.648C253.408 230.439 251.497 231.18 251.212 232.681C250.991 233.815 251.763 234.896 252.599 235.743C255.539 238.691 264.901 241.971 272.279 241.622" fill="#FFBE9D"/>
<path d="M272.279 241.631C272.279 241.561 271.149 241.631 269.146 241.439C266.329 241.157 263.555 240.572 260.877 239.694C259.017 239.109 257.223 238.349 255.521 237.426C254.581 236.934 253.716 236.324 252.948 235.612C252.539 235.28 252.204 234.874 251.964 234.417C251.724 233.959 251.584 233.461 251.552 232.951C251.65 232.442 251.922 231.977 252.325 231.629C252.729 231.281 253.241 231.068 253.784 231.023C254.994 230.89 256.216 231.126 257.276 231.695C258.474 232.285 259.733 232.756 261.033 233.099C262.393 233.407 263.79 233.536 265.186 233.483C270.873 233.3 275.77 231.058 280.419 230.212C282.603 229.742 284.856 229.63 287.08 229.88C289.013 230.125 290.897 230.646 292.666 231.424C295.243 232.56 297.531 234.212 299.373 236.266C300.659 237.732 301.211 238.682 301.211 238.648C301.126 238.4 301.006 238.165 300.852 237.95C300.479 237.296 300.042 236.677 299.548 236.1C297.759 233.93 295.467 232.181 292.85 230.988C291.041 230.154 289.107 229.592 287.117 229.322C284.83 229.037 282.508 229.128 280.254 229.592C275.495 230.465 270.607 232.628 265.131 232.803C263.797 232.849 262.462 232.726 261.162 232.436C259.907 232.104 258.691 231.651 257.533 231.084C256.338 230.467 254.968 230.223 253.619 230.386C252.943 230.495 252.309 230.772 251.781 231.189C251.514 231.407 251.295 231.674 251.137 231.973C250.979 232.273 250.886 232.599 250.863 232.934C250.89 233.532 251.046 234.12 251.323 234.658C251.6 235.197 251.99 235.676 252.47 236.065C253.292 236.812 254.22 237.447 255.227 237.95C256.979 238.874 258.826 239.625 260.739 240.192C263.478 241.041 266.317 241.566 269.192 241.753C269.972 241.798 270.755 241.798 271.535 241.753C271.787 241.741 272.037 241.7 272.279 241.631Z" fill="#EB996E"/>
<path d="M383.127 260.169C383.127 260.169 383.054 260.169 382.916 260.108L382.319 259.907L380.151 259.157C378.313 258.529 375.759 257.7 372.92 256.854C370.081 256.008 367.481 255.31 365.57 254.839L363.337 254.289L362.722 254.141C362.584 254.141 362.51 254.08 362.52 254.071H362.731L363.356 254.185C363.889 254.289 364.66 254.455 365.607 254.673C367.508 255.127 370.109 255.798 372.957 256.645C375.805 257.491 378.35 258.346 380.178 259C381.097 259.332 381.823 259.611 382.328 259.811L382.907 260.047L383.127 260.169Z" fill="#EB996E"/>
<path d="M303.811 188.521C309.597 188.285 315.063 185.936 319.069 181.965C323.074 177.994 325.31 172.708 325.31 167.209V141.91L326.78 61.0762L324.878 56.5224L280.042 43.0879C266.261 42.0672 257 60.0642 256.513 73.1847C255.971 87.7708 255.916 105.593 258.047 116.402C262.329 138.142 280.042 140.462 280.042 140.462L280.392 167.506C280.433 170.358 281.077 173.174 282.285 175.786C283.493 178.398 285.24 180.753 287.424 182.713C289.607 184.672 292.183 186.196 294.997 187.194C297.812 188.191 300.809 188.643 303.811 188.521Z" fill="#FFBE9D"/>
<path d="M262.467 87.3608C262.481 88.0921 262.795 88.7894 263.342 89.3042C263.89 89.819 264.627 90.1108 265.397 90.1175C265.774 90.1338 266.15 90.0788 266.504 89.9555C266.858 89.8323 267.183 89.6434 267.459 89.3998C267.735 89.1561 267.958 88.8627 268.113 88.5366C268.269 88.2105 268.354 87.8582 268.365 87.5003C268.348 86.7705 268.033 86.0754 267.486 85.5625C266.939 85.0496 266.203 84.759 265.434 84.7524C265.058 84.7336 264.681 84.7867 264.327 84.9085C263.972 85.0303 263.647 85.2183 263.37 85.4615C263.094 85.7047 262.871 85.998 262.716 86.3242C262.561 86.6505 262.476 87.0029 262.467 87.3608Z" fill="#263238"/>
<path d="M260.84 82.205C261.217 82.5627 263.413 80.9314 266.583 80.8529C269.752 80.7744 272.095 82.2225 272.463 81.8474C272.628 81.6816 272.233 81.0273 271.195 80.3556C269.798 79.4859 268.151 79.05 266.482 79.1081C264.818 79.1375 263.208 79.6726 261.888 80.6348C260.969 81.3763 260.629 82.048 260.84 82.205Z" fill="#263238"/>
<path d="M293.236 87.3608C293.25 88.0906 293.563 88.7866 294.108 89.3012C294.654 89.8157 295.389 90.1085 296.158 90.1175C296.535 90.1362 296.912 90.0829 297.267 89.9605C297.622 89.8382 297.948 89.6494 298.225 89.4053C298.501 89.1612 298.724 88.8668 298.878 88.5396C299.033 88.2123 299.117 87.8589 299.125 87.5003C299.113 86.7706 298.801 86.0743 298.254 85.5606C297.708 85.047 296.972 84.7568 296.203 84.7524C295.827 84.7336 295.45 84.7867 295.096 84.9085C294.741 85.0303 294.416 85.2183 294.14 85.4615C293.863 85.7047 293.64 85.998 293.485 86.3242C293.33 86.6505 293.245 87.0029 293.236 87.3608Z" fill="#263238"/>
<path d="M292.06 81.952C292.437 82.301 294.632 80.6784 297.802 80.5999C300.972 80.5214 303.315 81.9695 303.682 81.5944C303.838 81.4286 303.452 80.7743 302.414 80.1026C301.017 79.234 299.37 78.7982 297.701 78.8551C296.037 78.8845 294.427 79.4196 293.107 80.3818C292.188 81.1233 291.867 81.7863 292.06 81.952Z" fill="#263238"/>
<path d="M281.191 104.599C281.191 104.433 279.216 104.154 276.009 103.849C275.201 103.796 274.429 103.665 274.273 103.142C274.18 102.349 274.347 101.548 274.75 100.848C275.458 98.9633 276.193 96.9917 276.974 94.9242C280.061 86.4884 282.275 79.5705 281.917 79.4483C281.558 79.3262 278.756 86.0784 275.678 94.5055L273.547 100.464C273.271 101.336 272.766 102.348 273.216 103.491C273.34 103.761 273.529 103.999 273.766 104.188C274.004 104.378 274.284 104.512 274.585 104.581C275.035 104.689 275.499 104.739 275.963 104.73C279.188 104.808 281.182 104.773 281.191 104.599Z" fill="#263238"/>
<path d="M280.033 140.322C290.868 140.194 301.453 137.214 310.61 131.712C310.61 131.712 303.572 146.909 280.493 145.469L280.033 140.322Z" fill="#EB996E"/>
<path d="M290.893 70.2012C291.233 71.0125 294.393 70.5414 298.124 70.8729C301.854 71.2044 304.904 72.0855 305.382 71.3353C305.584 70.9776 305.042 70.2186 303.802 69.4597C302.154 68.529 300.305 67.9668 298.395 67.8156C296.485 67.6645 294.563 67.9284 292.776 68.5873C291.417 69.1107 290.755 69.7737 290.893 70.2012Z" fill="#263238"/>
<path d="M261.759 73.4464C262.338 74.1181 264.515 73.3505 267.134 73.2458C269.752 73.1411 272.003 73.586 272.49 72.8532C272.702 72.4955 272.334 71.8238 271.342 71.2044C270.024 70.4358 268.484 70.0816 266.941 70.1925C265.398 70.2604 263.914 70.7816 262.696 71.6842C261.787 72.4083 261.548 73.1236 261.759 73.4464Z" fill="#263238"/>
<path d="M272.132 44.5796C273.198 51.4149 276.05 57.8877 280.429 63.4071C284.807 68.9266 290.571 73.3168 297.196 76.1769C296.798 74.4322 296.406 72.6875 296.02 70.9427C301.698 79.8584 313.752 87.3259 321.506 90.3443C323.904 91.2777 326.973 90.4402 329.15 89.1142C332.2 87.2648 332.384 83.1123 331.741 79.7275C329.747 69.1369 323.132 59.6629 314.514 52.6839C305.896 45.705 295.386 41.0465 284.517 37.9234C281.641 37.0947 280.07 36.5276 277.222 37.4436C274.374 38.3596 270.644 41.4391 272.022 43.9689" fill="#263238"/>
<path d="M317.868 74.3013C324.446 96.6777 315.745 121.549 317.987 144.684C318.483 149.84 320.459 155.807 325.034 158.642C327.294 160.038 327.79 159.157 330.391 159.646C337.033 160.867 343.308 158.224 349.942 159.445C355.932 160.553 365.46 163.807 369.236 159.244C373.012 154.682 368.657 149.317 364.963 144.85C361.27 140.384 356.309 136.563 354.49 131.145C352.523 125.326 354.646 119.08 355.565 113.026C358.707 92.3594 350.971 71.4225 338.108 54.4723C333.625 48.5663 326.862 42.9744 320.78 38.5341C314.698 34.0937 300.944 30.3512 293.282 30.6827C285.619 31.0142 272.858 36.7893 269.734 44.946" fill="#263238"/>
<path d="M292.427 61.5298C292.381 61.6083 292.887 61.9311 293.861 62.4633L295.597 63.4229L294.118 62.0794C290.517 58.8967 287.442 55.2178 284.995 51.166C280.401 43.6549 279.702 36.4578 279.335 36.5451C279.216 36.5451 279.216 38.3422 279.822 41.1774C280.643 44.8535 282.062 48.3855 284.03 51.6458C286.476 55.8285 289.803 59.4872 293.805 62.3935L294.072 62.0096C293.034 61.6432 292.464 61.4775 292.427 61.5298Z" fill="#455A64"/>
<path d="M334.13 154.629C334.174 154.15 334.174 153.669 334.13 153.19C334.13 152.248 334.13 150.861 334.176 149.072C334.481 144.038 335.262 139.039 336.509 134.137C337.924 127.891 340.267 120.572 341.673 112.145C342.402 107.729 342.627 103.251 342.344 98.7888C342.097 93.9429 340.818 89.1948 338.586 84.8309C336.262 80.5004 332.859 76.7748 328.672 73.9786C324.722 71.1957 320.597 69.0496 316.83 66.8164C310.123 62.8991 303.952 58.211 298.454 52.8584C294.768 49.2348 291.389 45.3406 288.348 41.2122C287.273 39.7467 286.455 38.5951 285.913 37.8013C285.652 37.3816 285.344 36.9897 284.995 36.6323C285.187 37.0786 285.42 37.5077 285.693 37.9147C286.161 38.7871 286.933 39.9386 287.953 41.4042C290.887 45.6494 294.211 49.6401 297.885 53.3295C303.342 58.8184 309.517 63.6206 316.26 67.619C320.045 69.8871 324.143 72.0506 327.993 74.7811C332.029 77.483 335.315 81.0755 337.566 85.2496C339.728 89.4793 340.977 94.0766 341.241 98.7714C341.528 103.161 341.328 107.568 340.644 111.918C339.312 120.24 337.042 127.621 335.719 133.893C334.529 138.846 333.861 143.898 333.726 148.976C333.702 150.357 333.757 151.737 333.891 153.111C333.907 153.625 333.987 154.134 334.13 154.629Z" fill="#455A64"/>
<path d="M256.495 54.9783C255.677 60.6212 255.199 66.3037 255.061 71.9983C259.71 68.439 264.405 64.8012 267.924 60.2038C271.443 55.6064 273.639 49.8575 272.72 44.2481C269.353 45.1883 266.307 46.9541 263.888 49.3677C261.468 51.7813 259.761 54.7575 258.939 57.9967" fill="#263238"/>
<path d="M280.189 114.823C280.98 113.357 281.191 112.982 282.532 112.284C283.549 112.041 284.599 111.941 285.647 111.988C286.667 112.04 287.347 113 287.723 113.898C288.339 115.198 288.428 116.667 287.971 118.025C287.438 119.342 282.624 120.921 280.033 117.458" fill="#EB996E"/>
<path d="M284.149 119.752C284.412 119.736 284.676 119.736 284.939 119.752C285.637 119.72 286.308 119.493 286.869 119.098C287.631 118.44 288.123 117.546 288.256 116.577C288.364 116 288.316 115.406 288.119 114.852C287.921 114.297 287.58 113.798 287.126 113.401C286.133 112.661 284.897 112.275 283.635 112.311C283.127 112.329 282.63 112.45 282.175 112.665C281.721 112.88 281.319 113.185 280.998 113.558C280.57 114.085 280.289 114.706 280.18 115.364C280.161 115.616 280.111 115.864 280.033 116.105C279.958 115.856 279.942 115.594 279.987 115.338C280.038 114.628 280.296 113.945 280.732 113.366C281.046 112.969 281.439 112.634 281.889 112.38C282.415 112.089 283.008 111.921 283.616 111.892C284.275 111.868 284.933 111.948 285.564 112.127C286.242 112.305 286.87 112.624 287.402 113.061C287.961 113.52 288.361 114.128 288.55 114.806C288.739 115.415 288.773 116.057 288.651 116.681C288.536 117.233 288.335 117.765 288.054 118.26C287.763 118.806 287.308 119.257 286.747 119.558C286.187 119.859 285.545 119.996 284.903 119.953C284.638 119.945 284.38 119.876 284.149 119.752Z" fill="#263238"/>
<path d="M295.073 97.4977C295.156 97.5937 294.853 97.9252 294.32 97.9863C293.787 98.0473 293.401 97.7769 293.475 97.6722C293.548 97.5675 293.879 97.5762 294.265 97.5326C294.651 97.489 294.991 97.393 295.073 97.4977Z" fill="#EB996E"/>
<path d="M300.136 97.2447C300.007 97.2447 299.833 97.0092 299.759 96.669C299.686 96.3287 299.713 96.0234 299.842 95.9973C299.97 95.9711 300.145 96.2241 300.228 96.573C300.31 96.922 300.301 97.2447 300.136 97.2447Z" fill="#EB996E"/>
<path d="M306.282 95.3081C306.282 95.4302 305.933 95.4651 305.575 95.3953C305.216 95.3255 304.941 95.1511 304.968 95.0289C304.996 94.9068 305.318 94.8719 305.676 94.9504C306.034 95.0289 306.31 95.1859 306.282 95.3081Z" fill="#EB996E"/>
<path d="M297.701 102.348C297.572 102.348 297.462 102.069 297.462 101.729C297.462 101.389 297.572 101.109 297.701 101.109C297.83 101.109 297.94 101.38 297.94 101.729C297.94 102.078 297.83 102.348 297.701 102.348Z" fill="#EB996E"/>
<path d="M303.223 100.001C303.094 100.001 302.984 99.9404 302.984 99.8618C302.984 99.7833 303.094 99.7223 303.223 99.7223C303.351 99.7223 303.462 99.7833 303.462 99.8618C303.462 99.9404 303.361 100.001 303.223 100.001Z" fill="#EB996E"/>
<path d="M263.679 98.3439C263.679 98.466 263.22 98.5533 262.761 98.3439C262.301 98.1345 262.016 97.742 262.117 97.6635C262.218 97.5849 262.549 97.7594 262.954 97.9339C263.358 98.1084 263.689 98.213 263.679 98.3439Z" fill="#EB996E"/>
<path d="M267.786 97.5239C267.718 97.5003 267.663 97.4523 267.632 97.3903C267.601 97.3283 267.597 97.2572 267.621 97.1924C267.667 97.0441 267.795 96.9394 267.924 96.9743C267.992 96.998 268.047 97.0459 268.078 97.1079C268.109 97.1699 268.113 97.241 268.089 97.3058C268.085 97.3392 268.073 97.3713 268.056 97.4004C268.038 97.4295 268.014 97.455 267.986 97.4753C267.958 97.4956 267.926 97.5103 267.891 97.5187C267.857 97.527 267.821 97.5288 267.786 97.5239Z" fill="#EB996E"/>
<path d="M265.59 103.177C265.462 103.177 265.324 102.985 265.287 102.723C265.25 102.462 265.287 102.226 265.453 102.209C265.618 102.191 265.719 102.392 265.765 102.662C265.811 102.933 265.728 103.159 265.59 103.177Z" fill="#EB996E"/>
<path d="M260.188 102.898C260.078 102.828 260.124 102.592 260.28 102.357C260.436 102.121 260.666 101.999 260.776 102.069C260.886 102.139 260.84 102.383 260.684 102.61C260.528 102.837 260.298 102.967 260.188 102.898Z" fill="#EB996E"/>
<path d="M239.589 298.161V338.639C239.589 342.038 238.734 345.388 237.096 348.41C235.458 351.432 233.085 354.04 230.172 356.017C226.359 358.599 221.791 359.987 217.107 359.986H160.144C155.879 359.989 151.701 358.839 148.099 356.671L146.133 355.467C142.937 353.544 140.303 350.887 138.475 347.741C136.648 344.595 135.685 341.063 135.678 337.47V298.161H239.589Z" fill="#263238"/>
<path d="M135.678 307.905H106.801V312.668L123.477 315.102C125.916 315.425 128.23 316.329 130.202 317.729C132.175 319.129 133.742 320.981 134.759 323.111C135.344 324.349 135.656 325.688 135.678 327.045C135.678 327.045 141.558 326.958 142.559 320.284C142.559 320.153 142.605 320.022 142.624 319.892C142.955 317.48 142.477 315.03 141.258 312.891C140.039 310.751 138.141 309.031 135.834 307.975L135.678 307.905Z" fill="#455A64"/>
<path d="M239.589 307.94H268.484V312.721L251.809 315.155C249.362 315.475 247.04 316.38 245.062 317.786C243.084 319.191 241.514 321.05 240.499 323.189C239.914 324.428 239.602 325.766 239.58 327.124C239.58 327.124 233.709 327.036 232.699 320.371L232.644 319.97C232.312 317.558 232.79 315.109 234.009 312.969C235.228 310.83 237.126 309.11 239.433 308.054L239.589 307.94Z" fill="#455A64"/>
<path d="M239.589 307.94C239.456 308.035 239.314 308.119 239.167 308.193C238.747 308.407 238.342 308.646 237.954 308.908C236.476 309.89 235.243 311.167 234.343 312.651C232.937 314.941 232.42 317.626 232.883 320.241C233.074 321.838 233.74 323.351 234.803 324.602C236.023 325.932 237.746 326.75 239.599 326.879L239.378 327.08C239.401 325.467 239.82 323.881 240.6 322.448C241.39 320.914 242.492 319.544 243.843 318.417C245.263 317.228 246.906 316.302 248.685 315.687C250.527 315.117 252.427 314.734 254.354 314.544L268.475 312.494L268.282 312.703C268.282 311.072 268.282 309.484 268.282 307.94L268.503 308.149L247.693 308.071L241.749 308.01H240.159C239.976 308.03 239.791 308.03 239.608 308.01H240.15H241.721L247.647 307.949L268.503 307.87H268.723V308.08C268.723 309.624 268.723 311.212 268.723 312.843V313.035H268.53L254.409 315.102C252.514 315.291 250.644 315.668 248.832 316.228C247.117 316.814 245.534 317.702 244.165 318.845C242.877 319.876 241.827 321.148 241.079 322.581C240.332 324.014 239.903 325.578 239.819 327.176V327.394H239.608C238.63 327.328 237.676 327.078 236.802 326.657C235.928 326.236 235.151 325.653 234.518 324.943C233.417 323.638 232.735 322.06 232.552 320.398C232.104 317.713 232.666 314.964 234.141 312.633C235.076 311.134 236.362 309.86 237.899 308.908C238.301 308.656 238.722 308.432 239.158 308.237C239.291 308.125 239.436 308.026 239.589 307.94Z" fill="#263238"/>
<path d="M237.734 299.243C237.661 299.296 237.58 299.34 237.495 299.373L236.778 299.714L234.022 300.996L232.01 301.912C231.265 302.235 230.429 302.531 229.547 302.872C227.774 303.535 225.79 304.381 223.493 305.044L219.919 306.178C218.669 306.562 217.337 306.85 215.977 307.207C213.267 307.966 210.299 308.481 207.194 309.092C200.405 310.208 193.531 310.791 186.641 310.836C179.751 310.795 172.877 310.212 166.089 309.092C162.983 308.49 160.016 307.966 157.305 307.216C155.946 306.85 154.613 306.562 153.364 306.178L149.79 305.053C147.493 304.39 145.508 303.543 143.726 302.889C142.807 302.54 142.017 302.244 141.273 301.929L139.261 301.013L136.505 299.731L135.788 299.391L135.558 299.26C135.648 299.276 135.735 299.305 135.815 299.347L136.55 299.644C137.221 299.94 138.168 300.342 139.362 300.848L141.392 301.72C142.137 302.025 142.973 302.305 143.855 302.645C145.637 303.273 147.622 304.102 149.928 304.739L153.502 305.838C154.742 306.213 156.074 306.492 157.425 306.841C160.135 307.582 163.093 308.08 166.199 308.673C172.962 309.775 179.807 310.358 186.669 310.418C193.53 310.359 200.376 309.775 207.139 308.673C210.244 308.08 213.203 307.574 215.913 306.832C217.264 306.483 218.596 306.204 219.836 305.829L223.41 304.73C225.707 304.093 227.701 303.264 229.474 302.627C230.393 302.296 231.192 302.008 231.945 301.711L233.967 300.839L236.741 299.635L237.476 299.33L237.734 299.243Z" fill="#455A64"/>
<path d="M237.798 302.592C237.798 302.592 237.724 302.645 237.559 302.723L236.842 303.072L234.086 304.355L232.074 305.227C231.33 305.541 230.494 305.838 229.621 306.187C227.839 306.85 225.854 307.696 223.557 308.359L219.983 309.484C218.734 309.868 217.411 310.156 216.051 310.522C213.295 311.281 210.364 311.796 207.258 312.407C200.472 313.523 193.601 314.106 186.715 314.151C179.825 314.107 172.951 313.523 166.162 312.407C163.048 311.796 160.08 311.281 157.37 310.522C156.01 310.165 154.678 309.877 153.428 309.493L149.854 308.368C147.557 307.705 145.573 306.858 143.8 306.195C142.881 305.855 142.081 305.559 141.337 305.236L139.353 304.372L136.596 303.09L135.88 302.75C135.714 302.671 135.632 302.627 135.641 302.619L135.898 302.706L136.633 303.011L139.445 304.215L141.475 305.087C142.228 305.384 143.055 305.672 143.947 306.003C145.72 306.64 147.713 307.46 150.01 308.106L153.584 309.196C154.825 309.571 156.157 309.851 157.517 310.2C160.218 310.941 163.185 311.447 166.282 312.04C173.048 313.142 179.896 313.725 186.761 313.785C193.623 313.73 200.468 313.146 207.231 312.04C210.327 311.447 213.285 310.95 215.996 310.208C217.346 309.859 218.678 309.58 219.928 309.205L223.493 308.106C225.799 307.46 227.783 306.64 229.566 306.003C230.485 305.672 231.284 305.384 232.028 305.079L234.059 304.206L236.87 303.002L237.605 302.706L237.798 302.592Z" fill="#455A64"/>
<path d="M218.201 361.242C225.78 360.125 229.676 356.2 231.881 349.221C232.69 347.068 232.751 344.726 232.056 342.538C231.247 340.41 229.097 338.621 226.708 338.709C223.824 338.822 221.766 341.413 220.589 343.943C219.413 346.473 218.541 349.273 216.271 350.974C214.002 352.675 209.748 352.169 209.261 349.456C209.256 348.738 209.176 348.022 209.022 347.319C208.379 345.679 205.641 345.766 204.429 347.101C203.216 348.436 203.179 350.355 203.234 352.108C203.289 353.862 203.354 355.746 202.315 357.203C200.781 359.375 197.575 359.619 194.818 359.637L178.538 359.785C178.538 359.785 181.294 361.068 188.589 361.068C198.493 361.041 218.201 361.242 218.201 361.242Z" fill="#9E9169"/>
<path d="M186.715 359.759C181.267 359.846 175.488 359.855 170.839 357.142C167.899 355.441 165.436 352.702 162.037 352.213C161.062 352.021 160.046 352.189 159.198 352.684C158.784 352.938 158.477 353.32 158.327 353.766C158.178 354.212 158.197 354.693 158.38 355.127C156.873 354.586 155.725 353.443 154.43 352.51C153.134 351.576 151.453 350.904 149.946 351.454C149.178 351.806 148.563 352.4 148.206 353.136C147.849 353.871 147.772 354.701 147.989 355.484C148.246 356.255 148.673 356.965 149.242 357.567C149.811 358.169 150.508 358.648 151.287 358.974C152.853 359.619 154.508 360.045 156.203 360.239L195.406 360.945C195.397 360.003 186.715 359.759 186.715 359.759Z" fill="#9E9169"/>
<path d="M156.12 362.385L156.203 360.335L218.201 361.242V362.385H156.12Z" fill="#455A64"/>
<path d="M214.241 338.639C213.508 337.472 213.093 336.15 213.035 334.792C212.978 333.435 213.278 332.085 213.91 330.866C214.471 329.81 215.619 328.764 216.804 329.121C217.989 329.479 218.228 330.866 218.201 331.983C218.136 334.417 216.29 339.337 214.241 338.621" fill="#9E9169"/>
<path d="M177.941 265.613C177.996 265.613 177.886 266.031 177.941 266.782C178.047 267.839 178.342 268.872 178.813 269.835C179.561 271.278 180.143 272.793 180.55 274.354C180.838 276.363 180.306 278.402 179.062 280.05C177.886 281.839 176.48 283.313 175.561 284.857C175.113 285.577 174.764 286.348 174.523 287.151C174.337 287.849 174.285 288.573 174.367 289.289C174.458 290.342 174.921 291.334 175.68 292.107C175.987 292.362 176.309 292.601 176.645 292.822C176.645 292.822 176.535 292.822 176.333 292.726C176.051 292.596 175.788 292.432 175.552 292.237C174.7 291.469 174.16 290.441 174.027 289.332C173.913 288.573 173.954 287.8 174.146 287.056C174.376 286.207 174.725 285.391 175.184 284.63C176.103 283.034 177.518 281.533 178.657 279.789C179.843 278.234 180.368 276.312 180.127 274.406C179.736 272.873 179.195 271.377 178.51 269.94C178.054 268.938 177.801 267.864 177.766 266.773C177.765 266.479 177.799 266.187 177.867 265.9C177.875 265.801 177.9 265.704 177.941 265.613Z" fill="#263238"/>
<path d="M187.606 264.827C187.661 264.827 187.542 265.246 187.606 265.996C187.717 267.053 188.012 268.085 188.479 269.05C189.225 270.494 189.81 272.009 190.224 273.569C190.506 275.579 189.97 277.616 188.727 279.265C187.551 281.054 186.154 282.528 185.226 284.072C184.779 284.791 184.433 285.562 184.197 286.366C184.004 287.066 183.948 287.793 184.032 288.512C184.128 289.562 184.59 290.551 185.346 291.321C185.653 291.577 185.975 291.816 186.311 292.037C186.311 292.037 186.2 292.037 186.007 291.941C185.719 291.817 185.453 291.652 185.217 291.452C184.368 290.683 183.831 289.655 183.701 288.547C183.589 287.788 183.627 287.016 183.812 286.27C184.039 285.426 184.389 284.616 184.85 283.863C185.768 282.266 187.174 280.766 188.323 279.03C189.506 277.471 190.028 275.546 189.783 273.638C189.4 272.103 188.859 270.607 188.166 269.172C187.71 268.17 187.457 267.096 187.422 266.005C187.421 265.712 187.455 265.419 187.523 265.133C187.551 264.923 187.588 264.819 187.606 264.827Z" fill="#263238"/>
<path d="M197.235 264.06C197.29 264.06 197.179 264.479 197.235 265.229C197.362 266.29 197.672 267.325 198.153 268.291C198.898 269.732 199.48 271.244 199.89 272.801C200.171 274.812 199.636 276.848 198.392 278.498C197.216 280.286 195.82 281.76 194.901 283.304C194.451 284.023 194.102 284.794 193.863 285.599C193.672 286.299 193.619 287.026 193.707 287.745C193.8 288.793 194.259 289.782 195.011 290.554C195.32 290.811 195.645 291.05 195.985 291.269C195.985 291.269 195.866 291.269 195.673 291.173C195.387 291.045 195.121 290.881 194.883 290.685C194.033 289.916 193.496 288.887 193.367 287.78C193.255 287.021 193.292 286.249 193.477 285.503C193.711 284.663 194.06 283.857 194.515 283.104C195.434 281.499 196.849 279.998 197.988 278.262C199.17 276.702 199.694 274.779 199.458 272.871C199.068 271.336 198.523 269.84 197.832 268.404C197.379 267.401 197.127 266.328 197.088 265.237C197.089 264.944 197.126 264.651 197.198 264.365C197.179 264.156 197.235 264.06 197.235 264.06Z" fill="#263238"/>
<path d="M63.0956 362.699C63.0956 362.699 50.7107 305.253 63.0956 273.333H76.877C76.877 273.333 87.3968 306.998 76.877 362.699H63.0956Z" fill="#9E9169"/>
<g opacity="0.7">
<path d="M63.0956 362.699C63.0956 362.699 50.7107 305.253 63.0956 273.333H76.877C76.877 273.333 87.3968 306.998 76.877 362.699H63.0956Z" fill="white"/>
</g>
<path d="M73.2479 243.515C75.5271 239.812 78.7787 236.733 82.6852 234.578C86.5917 232.424 91.0197 231.268 95.5371 231.224C93.4045 235.272 90.0859 238.649 85.9801 240.948C81.8744 243.248 77.1564 244.373 72.3935 244.187" fill="#455A64"/>
<path d="M76.6565 219.569C73.5285 216.469 71.3015 212.651 70.1935 208.488C69.0855 204.326 69.1344 199.962 70.3355 195.823C73.8499 198.88 76.3582 202.838 77.558 207.218C78.7578 211.599 78.5979 216.215 77.0975 220.511" fill="#455A64"/>
<path d="M64.2716 219.909C60.5716 218.491 57.328 216.176 54.8647 213.196C52.4013 210.215 50.8043 206.674 50.233 202.924C54.2316 204.174 57.7585 206.506 60.3799 209.634C63.0013 212.761 64.6031 216.548 64.9883 220.528" fill="#455A64"/>
<path d="M60.8814 194.401C60.254 191.704 60.3828 188.898 61.255 186.264C62.1272 183.629 63.7123 181.258 65.8519 179.387C66.7093 182.19 66.6852 185.17 65.7825 187.959C64.8799 190.749 63.138 193.228 60.7712 195.09" fill="#455A64"/>
<path d="M70.4457 265.935C70.7323 263.187 71.7731 260.558 73.4642 258.311C75.1554 256.063 77.4378 254.277 80.0835 253.129C79.9832 256.043 78.9879 258.866 77.22 261.249C75.4522 263.633 72.9889 265.474 70.1333 266.546" fill="#455A64"/>
<path d="M55.4515 170.358C55.4515 170.358 57.9322 179.161 60.8263 193.616L61.9288 199.295C62.3055 201.266 62.6271 203.334 62.9946 205.471C63.7571 209.728 64.3819 214.317 65.0802 219.133C66.3389 228.79 67.4322 239.433 68.1029 250.643C68.7736 261.853 68.8654 272.557 68.7184 282.284C68.5806 287.151 68.4888 291.775 68.2223 296.093C68.0937 298.248 68.0202 300.342 67.8732 302.34C67.7262 304.337 67.57 306.265 67.423 308.097C66.2102 322.77 64.7586 331.765 64.7586 331.765C64.7586 331.765 64.7586 331.625 64.7586 331.346L64.9332 330.168C65.0618 329.069 65.2363 327.49 65.466 325.457C65.5855 324.437 65.7233 323.303 65.8611 322.055C65.9989 320.808 66.1184 319.438 66.2562 318.007C66.5134 315.094 66.8809 311.787 67.1106 308.123C67.2392 306.28 67.3771 304.36 67.5241 302.366C67.6619 300.359 67.7262 298.274 67.8364 296.119C68.0937 291.801 68.1672 287.186 68.2958 282.327C68.4153 272.609 68.2958 261.914 67.6435 250.713C66.9912 239.511 65.8887 228.903 64.6575 219.229C63.9776 214.413 63.3713 209.833 62.6179 205.567C62.2596 203.439 61.9472 201.371 61.5797 199.391C61.2122 197.411 60.8539 195.526 60.5139 193.712C59.8616 190.091 59.1174 186.837 58.5294 183.976C58.217 182.545 57.9322 181.211 57.6749 179.989C57.4177 178.768 57.1237 177.651 56.8848 176.648L55.8191 172.025C55.6996 171.51 55.6169 171.152 55.5434 170.821C55.4699 170.489 55.4515 170.358 55.4515 170.358Z" fill="#263238"/>
<path d="M85.9084 191.295C85.8949 191.403 85.8671 191.508 85.8258 191.609C85.7523 191.827 85.6604 192.124 85.5318 192.482L84.3741 195.884L83.5197 198.344C83.2349 199.216 82.9225 200.228 82.6009 201.284C81.9486 203.404 81.1401 205.794 80.4051 208.49C80.0284 209.833 79.6241 211.238 79.2107 212.703C78.7972 214.169 78.4389 215.704 78.0255 217.292C77.1802 220.459 76.4544 223.878 75.6551 227.472C74.1667 234.678 72.7977 242.652 71.7963 251.079C70.7948 259.506 70.3538 267.575 70.1517 274.921C70.1517 278.594 70.0323 282.083 70.1517 285.346C70.1517 286.977 70.1517 288.556 70.2528 290.074C70.3538 291.592 70.3906 293.04 70.4549 294.436C70.5468 297.219 70.7948 299.722 70.9418 301.921C71.0337 303.02 71.1072 304.049 71.1807 304.992C71.2542 305.934 71.3737 306.789 71.4472 307.609C71.6033 309.135 71.7228 310.33 71.8055 311.168C71.8055 311.56 71.8606 311.866 71.8882 312.101C71.8963 312.206 71.8963 312.311 71.8882 312.415C71.857 312.313 71.8355 312.208 71.8239 312.101C71.8239 311.875 71.7504 311.569 71.7044 311.185C71.5942 310.313 71.4472 309.153 71.2542 307.626L70.951 305.053C70.8592 304.11 70.7673 303.09 70.6662 301.991C70.4916 299.783 70.2252 297.28 70.1058 294.497C70.0323 293.11 69.9496 291.653 69.8761 290.135C69.8026 288.617 69.7842 287.038 69.7383 285.407C69.628 282.135 69.7383 278.637 69.7383 274.938C69.9128 267.584 70.3906 259.497 71.3461 251.053C72.3016 242.608 73.7349 234.626 75.2508 227.411C76.0685 223.817 76.8035 220.432 77.6672 217.231C78.0898 215.643 78.4573 214.099 78.8799 212.633C79.3026 211.168 79.716 209.772 80.1111 208.429C80.8644 205.742 81.6913 203.351 82.3712 201.24C82.7204 200.185 83.0511 199.208 83.3451 198.3C83.6391 197.393 83.9699 196.556 84.2639 195.858C84.8059 194.41 85.1826 193.241 85.5134 192.473C85.6604 192.107 85.7706 191.819 85.8533 191.601C85.859 191.497 85.8775 191.395 85.9084 191.295Z" fill="#263238"/>
<path d="M83.9056 197.794C80.892 195.387 80.7083 190.903 82.1875 187.439C83.6667 183.976 86.4505 181.193 88.775 178.175C91.0994 175.156 93.0748 171.545 92.5419 167.846C92.3173 166.991 92.252 166.105 92.349 165.229C92.5419 164.356 93.4515 163.545 94.3427 163.807C95.2339 164.068 95.4544 164.923 95.6197 165.691C96.1347 168.08 96.2894 170.527 96.0791 172.958C96.6819 171.543 97.6154 170.277 98.8092 169.256C100.003 168.234 101.426 167.484 102.97 167.061C103.302 168.483 103.25 169.962 102.82 171.361C102.389 172.759 101.594 174.032 100.508 175.06C102.501 174.275 104.633 173.464 106.755 173.856C108.877 174.249 110.77 176.378 109.971 178.288C109.052 180.452 105.956 180.495 103.539 180.905C100.836 181.374 98.3943 182.737 96.6488 184.752C94.4621 187.282 93.5893 190.589 91.8161 193.398C90.0429 196.207 86.6526 198.632 83.3819 197.637" fill="#9E9169"/>
<path d="M58.0425 180.05C61.3776 178.079 62.2228 173.656 61.2673 170.035C60.3118 166.415 57.9781 163.283 56.1222 159.986C54.2663 156.688 52.8423 152.85 53.9172 149.256C54.2729 148.423 54.4689 147.537 54.496 146.638C54.4317 145.766 53.66 144.824 52.732 144.964C51.8041 145.103 51.4641 145.923 51.1885 146.708C50.3243 149.003 49.8107 151.403 49.6634 153.836C49.2772 152.353 48.5403 150.974 47.5087 149.802C46.4771 148.631 45.1779 147.698 43.7098 147.075C43.1706 148.44 43.0032 149.912 43.2233 151.354C43.4433 152.797 44.0436 154.164 44.9685 155.327C43.131 154.28 41.1097 153.199 38.9598 153.303C36.8099 153.408 34.6141 155.266 35.1194 157.255C35.689 159.523 38.7944 159.986 41.1005 160.745C43.706 161.575 45.9209 163.248 47.3573 165.473C49.1397 168.265 49.5255 171.658 50.8577 174.677C52.19 177.695 55.1943 180.565 58.5845 179.998" fill="#9E9169"/>
<path d="M54.101 223.241C54.2395 223.416 54.3538 223.606 54.4409 223.809L55.3597 225.466C55.7456 226.19 56.2049 227.08 56.6919 228.136C57.1788 229.191 57.7852 230.369 58.3548 231.712C58.9245 233.056 59.5768 234.513 60.1923 236.118C60.8079 237.723 61.4419 239.433 62.0942 241.247C63.3253 244.894 64.5289 248.959 65.5487 253.269C66.5685 257.578 67.2576 261.757 67.7537 265.56C67.9742 267.462 68.2039 269.277 68.3142 270.978C68.4244 272.679 68.5439 274.258 68.6082 275.706C68.6725 277.154 68.6817 278.463 68.7001 279.614C68.7184 280.766 68.7001 281.751 68.7001 282.563C68.7001 283.374 68.6082 283.932 68.6082 284.43C68.6082 284.927 68.6082 285.075 68.5531 285.075C68.5276 284.858 68.5276 284.638 68.5531 284.421C68.5531 283.959 68.5531 283.339 68.5531 282.563C68.5531 281.786 68.5531 280.766 68.4979 279.614C68.4428 278.463 68.4428 277.163 68.3326 275.723C68.2223 274.284 68.158 272.696 67.9834 271.004C67.8089 269.311 67.6159 267.514 67.3862 265.613C66.8625 261.827 66.1367 257.674 65.1537 253.399C64.1706 249.125 62.9394 245.051 61.7359 241.404C61.1019 239.59 60.5139 237.862 59.8983 236.275C59.2828 234.687 58.6856 233.204 58.116 231.861C57.5463 230.517 57.0043 229.322 56.5357 228.266C56.0671 227.211 55.6169 226.304 55.277 225.571L54.4685 223.87C54.3252 223.672 54.2022 223.461 54.101 223.241Z" fill="#263238"/>
<path d="M56.3795 231.642C58.0425 230.36 58.217 227.917 57.4085 226.024C56.6 224.131 55.1484 222.587 53.908 220.921C52.6677 219.255 51.6295 217.274 51.9511 215.268C52.08 214.799 52.1235 214.312 52.0797 213.829C51.9786 213.349 51.4917 212.904 51.0048 213.035C50.5178 213.166 50.3892 213.637 50.2881 214.055C49.9866 215.352 49.8814 216.683 49.9757 218.007C49.6641 217.233 49.1714 216.537 48.5348 215.97C47.8981 215.403 47.1342 214.981 46.3007 214.736C46.1095 215.506 46.1254 216.309 46.347 217.071C46.5685 217.833 46.9887 218.53 47.5686 219.098C46.531 218.556 45.3504 218.31 44.1692 218.391C43.0207 218.583 41.9642 219.735 42.3317 220.773C42.8094 221.968 44.4999 222.011 45.8138 222.256C47.2804 222.541 48.5963 223.303 49.5347 224.41C50.7016 225.806 51.1518 227.612 52.0889 229.156C53.026 230.7 54.8452 232.061 56.6827 231.538" fill="#9E9169"/>
</g>
<defs>
<clipPath id="clip0_10_4348">
<rect width="460" height="386" fill="white"/>
</clipPath>
</defs>
</svg>
